<?xml version="1.0" standalone="no"?>
<!DOCTYPE svg PUBLIC "-//W3C//DTD SVG 20010904//EN"
 "http://www.w3.org/TR/2001/REC-SVG-20010904/DTD/svg10.dtd">
<svg version="1.0" xmlns="http://www.w3.org/2000/svg"
 width="512.000000pt" height="512.000000pt" viewBox="0 0 512.000000 512.000000"
 preserveAspectRatio="xMidYMid meet">

<g transform="translate(0.000000,512.000000) scale(0.100000,-0.100000)"
fill="#000000" stroke="none">
<path d="M2420 5114 c-363 -46 -639 -180 -885 -428 -215 -216 -330 -431 -397
-736 -17 -77 -22 -146 -27 -364 l-6 -269 -42 -12 c-63 -19 -123 -58 -175 -113
-213 -228 -127 -584 169 -692 57 -20 62 -25 68 -58 18 -95 107 -229 194 -293
101 -73 195 -99 359 -99 l112 0 0 84 0 84 -127 4 c-112 3 -135 7 -183 29 -62
29 -133 95 -159 148 -18 34 -33 93 -46 174 -7 46 -33 65 -108 77 -133 21 -213
104 -224 232 -13 139 85 254 234 274 55 7 90 31 98 67 2 12 6 157 9 322 4 326
10 368 68 540 137 405 479 719 897 825 568 143 1177 -138 1447 -668 111 -216
144 -393 144 -761 0 -305 2 -312 104 -326 102 -13 170 -61 212 -150 40 -85 29
-180 -29 -257 -41 -53 -99 -86 -173 -98 -67 -11 -102 -32 -108 -63 -2 -12 -9
-51 -16 -87 -20 -112 -88 -200 -190 -249 -48 -23 -71 -26 -182 -29 l-128 -4 0
-84 0 -84 113 0 c120 0 212 17 279 51 133 68 236 195 272 336 11 41 15 46 61
61 181 62 295 220 295 409 0 179 -125 345 -302 402 l-38 13 0 216 c0 240 -14
365 -55 507 -77 265 -184 445 -379 641 -218 218 -469 353 -766 409 -84 16
-322 27 -390 19z"/>
<path d="M2854 4505 c-29 -19 -32 -28 -129 -375 -48 -168 -95 -325 -106 -350
-25 -57 -91 -125 -150 -155 -76 -39 -150 -45 -596 -45 l-423 0 0 -85 0 -85 45
0 45 0 0 -269 c0 -283 6 -342 52 -481 63 -195 205 -383 380 -507 l78 -55 0
-238 0 -239 -402 -3 c-398 -3 -404 -3 -473 -28 -138 -48 -268 -159 -339 -289
-14 -27 -35 -84 -46 -127 -19 -72 -20 -111 -20 -598 1 -550 0 -539 47 -564 31
-17 3455 -17 3486 0 47 25 46 14 47 564 0 487 -1 526 -20 598 -11 43 -32 100
-46 127 -71 130 -201 241 -339 289 -69 25 -75 25 -472 28 l-403 3 0 239 0 238
78 55 c174 123 312 305 378 501 46 133 54 210 54 492 l0 264 45 0 45 0 0 84 0
84 -152 4 c-107 3 -164 9 -189 20 -49 21 -106 74 -129 118 -10 20 -64 198
-119 395 -85 302 -105 364 -127 383 -29 25 -70 29 -100 7z m201 -873 c58 -106
182 -193 298 -210 l52 -7 3 -255 c3 -267 -3 -337 -40 -444 -129 -378 -500
-617 -896 -576 -368 38 -670 311 -747 675 -11 51 -15 140 -15 333 l0 262 303
0 c166 0 333 5 370 10 159 23 303 123 376 259 17 32 53 136 81 232 27 96 53
181 56 189 3 8 34 -82 68 -200 34 -118 75 -239 91 -268z m-747 -1636 c111 -29
244 -39 350 -27 86 10 183 30 226 47 13 5 15 -29 18 -255 4 -319 -4 -303 143
-311 l95 -5 -16 -30 c-22 -43 -52 -73 -104 -103 l-45 -27 -415 0 c-406 0 -416
0 -455 22 -46 24 -87 65 -109 108 l-16 30 95 5 c147 8 139 -8 143 311 3 226 5
260 18 255 8 -3 40 -12 72 -20z m-489 -603 c43 -129 158 -232 296 -269 38 -10
147 -14 445 -14 298 0 407 4 445 14 138 37 253 140 296 269 l18 52 233 3 c136
1 254 -2 284 -8 122 -25 238 -112 291 -215 51 -99 53 -117 53 -602 l0 -453
-1620 0 -1620 0 0 451 c0 489 3 517 56 612 34 61 107 133 167 163 93 48 134
53 395 51 l243 -2 18 -52z"/>
<path d="M2065 3201 c-93 -57 -106 -165 -29 -237 48 -46 101 -53 161 -22 55
27 83 73 83 134 0 106 -127 180 -215 125z m85 -126 c0 -8 -6 -15 -14 -15 -17
0 -28 14 -19 24 12 12 33 6 33 -9z"/>
<path d="M2920 3202 c-108 -54 -107 -205 3 -260 60 -31 113 -24 161 22 125
117 -11 315 -164 238z m83 -127 c1 -5 -6 -11 -15 -13 -11 -2 -18 3 -18 13 0
17 30 18 33 0z"/>
<path d="M2244 2605 c13 -102 79 -195 170 -243 45 -24 62 -27 146 -27 80 0
102 4 138 23 98 52 163 142 178 245 l6 48 -62 -3 -61 -3 -18 -53 c-24 -70 -63
-109 -128 -128 -48 -14 -58 -14 -106 0 -65 19 -104 58 -128 128 l-18 53 -62 3
-62 3 7 -46z"/>
</g>
</svg>
