<?xml version="1.0" standalone="no"?>
<!DOCTYPE svg PUBLIC "-//W3C//DTD SVG 20010904//EN"
 "http://www.w3.org/TR/2001/REC-SVG-20010904/DTD/svg10.dtd">
<svg version="1.0" xmlns="http://www.w3.org/2000/svg"
 width="512.000000pt" height="512.000000pt" viewBox="0 0 512.000000 512.000000"
 preserveAspectRatio="xMidYMid meet">

<g transform="translate(0.000000,512.000000) scale(0.100000,-0.100000)"
fill="#000000" stroke="none">
<path d="M1173 4946 c-178 -44 -324 -194 -362 -374 -7 -34 -11 -205 -11 -472
l0 -420 -258 0 c-248 0 -259 -1 -302 -22 -53 -28 -80 -75 -80 -138 0 -57 26
-108 69 -137 33 -22 40 -23 302 -23 l269 0 0 -319 0 -320 -269 -3 c-255 -3
-271 -4 -298 -24 -98 -73 -99 -214 -1 -274 31 -19 51 -20 301 -20 l267 0 0
-325 0 -324 -280 -3 -280 -3 -37 -37 c-32 -33 -37 -44 -41 -97 -3 -48 0 -67
18 -99 42 -75 51 -77 353 -80 l267 -3 0 -419 c0 -451 3 -486 51 -585 57 -117
150 -199 279 -246 l65 -24 1690 0 c1630 0 1692 1 1745 19 167 57 289 194 325
363 17 81 20 428 5 485 -33 118 -217 143 -287 39 -22 -33 -23 -42 -23 -245 0
-200 -1 -214 -22 -256 -17 -33 -35 -51 -68 -67 l-44 -23 -1631 0 -1631 0 -44
23 c-33 16 -51 34 -68 67 l-22 45 2 1966 3 1966 29 37 c54 71 -79 66 1745 64
1647 -3 1650 -3 1678 -24 15 -11 38 -40 51 -64 l22 -44 0 -1172 0 -1171 23
-34 c70 -104 254 -79 287 39 6 24 10 437 10 1187 0 949 -3 1162 -14 1216 -41
190 -188 339 -374 378 -81 17 -3339 14 -3409 -3z"/>
<path d="M2775 4313 c-64 -9 -153 -36 -223 -69 -255 -117 -425 -352 -462 -636
-26 -195 37 -418 163 -576 l34 -44 -83 -43 c-241 -124 -398 -344 -435 -611
-24 -171 28 -254 158 -254 97 0 146 56 157 178 18 194 108 330 271 408 98 47
163 54 530 54 368 0 431 -7 533 -55 152 -72 241 -203 265 -392 15 -115 30
-144 89 -174 78 -40 168 -14 213 62 26 44 24 161 -4 270 -20 80 -81 209 -125
269 -79 106 -229 227 -330 265 l-45 17 59 85 c101 145 144 286 143 463 -3 300
-173 569 -448 705 -138 69 -313 98 -460 78z m271 -344 c150 -56 263 -178 304
-328 18 -68 14 -196 -8 -268 -76 -243 -335 -383 -587 -317 -175 45 -319 208
-344 390 -36 250 132 494 374 543 72 15 192 6 261 -20z"/>
<path d="M1829 1727 c-111 -74 -83 -251 46 -286 54 -15 1964 -15 2017 -1 72
20 118 84 118 161 -1 42 -37 108 -72 129 -33 20 -48 20 -1054 20 l-1021 0 -34
-23z"/>
<path d="M4719 1726 c-113 -77 -82 -250 50 -286 141 -38 257 140 164 251 -54
64 -148 79 -214 35z"/>
<path d="M2150 1088 c-50 -34 -72 -83 -67 -146 4 -56 24 -91 71 -126 27 -21
36 -21 726 -21 690 0 699 0 726 21 47 35 67 70 71 126 5 63 -17 112 -67 146
l-33 22 -697 0 -697 0 -33 -22z"/>
</g>
</svg>
