<?xml version="1.0" encoding="UTF-8"?>
<!DOCTYPE svg PUBLIC "-//W3C//DTD SVG 1.1//EN" "http://www.w3.org/Graphics/SVG/1.1/DTD/svg11.dtd">
<svg xmlns="http://www.w3.org/2000/svg" version="1.1" width="1667px" height="2500px" style="shape-rendering:geometricPrecision; text-rendering:geometricPrecision; image-rendering:optimizeQuality; fill-rule:evenodd; clip-rule:evenodd" xmlns:xlink="http://www.w3.org/1999/xlink">
<g><path style="opacity:0.999" fill="#f24e1d" d="M 387.5,-0.5 C 535.833,-0.5 684.167,-0.5 832.5,-0.5C 832.5,277.167 832.5,554.833 832.5,832.5C 685.833,832.5 539.167,832.5 392.5,832.5C 246.922,820.599 135.422,753.266 58,630.5C 23.8752,572.297 4.3752,509.631 -0.5,442.5C -0.5,424.833 -0.5,407.167 -0.5,389.5C 10.88,259.876 68.2133,156.043 171.5,78C 236.178,31.9383 308.178,5.77159 387.5,-0.5 Z"/></g>
<g><path style="opacity:0.999" fill="#fe7161" d="M 832.5,-0.5 C 981.167,-0.5 1129.83,-0.5 1278.5,-0.5C 1416.38,12.6828 1523.88,76.3495 1601,190.5C 1639.36,251.412 1661.19,317.745 1666.5,389.5C 1666.5,407.167 1666.5,424.833 1666.5,442.5C 1653.95,581.819 1589.95,690.319 1474.5,768C 1413.11,806.627 1346.11,828.127 1273.5,832.5C 1253.16,832.365 1232.82,832.699 1212.5,833.5C 1086.17,833.5 959.833,833.5 833.5,833.5C 833.5,832.833 833.167,832.5 832.5,832.5C 832.5,554.833 832.5,277.167 832.5,-0.5 Z"/></g>
<g><path style="opacity:0.999" fill="#a259fe" d="M 392.5,832.5 C 539.167,832.5 685.833,832.5 832.5,832.5C 833.167,832.5 833.5,832.833 833.5,833.5C 833.5,960.167 833.5,1086.83 833.5,1213.5C 832.187,1237.5 832.187,1261.5 833.5,1285.5C 833.5,1412.5 833.5,1539.5 833.5,1666.5C 686.833,1666.5 540.167,1666.5 393.5,1666.5C 277.757,1657.88 180.924,1610.88 103,1525.5C 41.2572,1453.65 6.75715,1370.32 -0.5,1275.5C -0.5,1258.17 -0.5,1240.83 -0.5,1223.5C 11.2615,1090.77 70.5948,985.269 177.5,907C 242.402,862.754 314.069,837.921 392.5,832.5 Z"/></g>
<g><path style="opacity:0.999" fill="#1abbfe" d="M 1273.5,832.5 C 1407.07,843.68 1513.23,903.014 1592,1010.5C 1636.09,1074.7 1660.92,1145.7 1666.5,1223.5C 1666.5,1240.83 1666.5,1258.17 1666.5,1275.5C 1655.82,1401.04 1601.49,1502.88 1503.5,1581C 1392.12,1662.07 1269.46,1685.41 1135.5,1651C 1015.55,1614.29 927.712,1539.79 872,1427.5C 851.027,1382.27 838.194,1334.93 833.5,1285.5C 832.187,1261.5 832.187,1237.5 833.5,1213.5C 849.039,1077.23 913.706,971.4 1027.5,896C 1084.37,860.876 1146.04,840.043 1212.5,833.5C 1232.82,832.699 1253.16,832.365 1273.5,832.5 Z"/></g>
<g><path style="opacity:0.999" fill="#0acf83" d="M 393.5,1666.5 C 540.167,1666.5 686.833,1666.5 833.5,1666.5C 833.667,1812.17 833.5,1957.83 833,2103.5C 826.14,2214.7 782.973,2308.86 703.5,2386C 630.365,2453.34 544.032,2491.18 444.5,2499.5C 425.5,2499.5 406.5,2499.5 387.5,2499.5C 249.616,2486.32 142.116,2422.65 65,2308.5C 26.6404,2247.59 4.80709,2181.25 -0.5,2109.5C -0.5,2091.83 -0.5,2074.17 -0.5,2056.5C 12.0474,1917.18 76.0474,1808.68 191.5,1731C 253.182,1692.16 320.515,1670.66 393.5,1666.5 Z"/></g>
</svg>
