<svg width="46" height="47" viewBox="0 0 46 47" fill="none" xmlns="http://www.w3.org/2000/svg">
<path d="M15.3859 37.6839C15.3859 37.8774 15.1726 38.0323 14.9036 38.0323C14.5976 38.0613 14.3843 37.9064 14.3843 37.6839C14.3843 37.4903 14.5976 37.3355 14.8665 37.3355C15.1448 37.3064 15.3859 37.4613 15.3859 37.6839ZM12.5016 37.2484C12.4367 37.4419 12.6222 37.6645 12.9004 37.7226C13.1415 37.8194 13.4198 37.7226 13.4754 37.529C13.531 37.3355 13.3548 37.1129 13.0766 37.0258C12.8355 36.9581 12.5665 37.0548 12.5016 37.2484ZM16.6008 37.0839C16.3319 37.1516 16.1464 37.3355 16.1742 37.5581C16.202 37.7516 16.4431 37.8774 16.7214 37.8097C16.9903 37.7419 17.1758 37.5581 17.148 37.3645C17.1202 37.1806 16.8698 37.0548 16.6008 37.0839ZM22.7032 0C9.83992 0 0 10.1903 0 23.6129C0 34.3452 6.47339 43.529 15.7198 46.7613C16.9069 46.9839 17.3242 46.2194 17.3242 45.5903C17.3242 44.9903 17.2964 41.6806 17.2964 39.6484C17.2964 39.6484 10.8044 41.1 9.44113 36.7645C9.44113 36.7645 8.38387 33.9484 6.8629 33.2226C6.8629 33.2226 4.73911 31.7032 7.01129 31.7323C7.01129 31.7323 9.32056 31.9258 10.5911 34.229C12.6222 37.9645 16.0258 36.8903 17.352 36.2516C17.5653 34.7032 18.1681 33.629 18.8359 32.9903C13.6516 32.3903 8.42097 31.6064 8.42097 22.2968C8.42097 19.6355 9.12581 18.3 10.6097 16.5968C10.3685 15.9677 9.58024 13.3742 10.8508 10.0258C12.7891 9.39677 17.25 12.6387 17.25 12.6387C19.1048 12.0968 21.0988 11.8161 23.0742 11.8161C25.0496 11.8161 27.0435 12.0968 28.8984 12.6387C28.8984 12.6387 33.3593 9.3871 35.2976 10.0258C36.5681 13.3839 35.7798 15.9677 35.5387 16.5968C37.0226 18.3097 37.9315 19.6452 37.9315 22.2968C37.9315 31.6355 32.469 32.3806 27.2847 32.9903C28.1379 33.7548 28.8613 35.2064 28.8613 37.4806C28.8613 40.7419 28.8335 44.7774 28.8335 45.571C28.8335 46.2 29.2601 46.9645 30.4379 46.7419C39.7121 43.529 46 34.3452 46 23.6129C46 10.1903 35.5665 0 22.7032 0ZM9.01452 33.3774C8.89395 33.4742 8.92177 33.6968 9.07944 33.8806C9.22782 34.0355 9.44113 34.1032 9.56169 33.9774C9.68226 33.8806 9.65444 33.6581 9.49677 33.4742C9.34839 33.3194 9.13508 33.2516 9.01452 33.3774ZM8.0129 32.5935C7.94798 32.7194 8.04073 32.8742 8.22621 32.971C8.3746 33.0677 8.56008 33.0387 8.625 32.9032C8.68992 32.7774 8.59718 32.6226 8.41169 32.5258C8.22621 32.4677 8.07782 32.4968 8.0129 32.5935ZM11.0177 36.0387C10.8694 36.1645 10.925 36.4548 11.1383 36.6387C11.3516 36.8613 11.6206 36.8903 11.7411 36.7355C11.8617 36.6097 11.806 36.3194 11.6206 36.1355C11.4165 35.9129 11.1383 35.8839 11.0177 36.0387ZM9.96048 34.6161C9.8121 34.7129 9.8121 34.9645 9.96048 35.1871C10.1089 35.4097 10.3593 35.5065 10.4798 35.4097C10.6282 35.2839 10.6282 35.0323 10.4798 34.8097C10.35 34.5871 10.1089 34.4903 9.96048 34.6161Z" fill="black"/>
</svg>
