<svg width="40" height="35" viewBox="0 0 40 35" fill="none" xmlns="http://www.w3.org/2000/svg">
<g clip-path="url(#clip0_242_242)">
<path d="M20 2.1875C19.4938 2.1875 18.9938 2.2832 18.5188 2.46777L0.987516 9.39258C0.393766 9.63184 1.59719e-05 10.2471 1.59719e-05 10.9375C1.59719e-05 11.6279 0.393766 12.2432 0.987516 12.4824L4.60627 13.9111C3.58127 15.6748 3.00002 17.7598 3.00002 19.9541V21.875C3.00002 23.8164 2.32502 25.8193 1.60627 27.3984C1.20002 28.2871 0.737516 29.1621 0.200016 29.9688C1.5974e-05 30.2627 -0.056234 30.6455 0.056266 30.9941C0.168766 31.3428 0.431266 31.6025 0.756266 31.6914L4.75627 32.7852C5.01877 32.8604 5.30002 32.8057 5.53127 32.6484C5.76252 32.4912 5.92502 32.2314 5.97502 31.9375C6.51252 29.0117 6.24377 26.3867 5.84377 24.5068C5.64377 23.5361 5.37502 22.5449 5.00002 21.6357V19.9541C5.00002 17.8896 5.63752 15.9414 6.74377 14.3828C7.55002 13.3232 8.59377 12.4688 9.81877 11.9424L19.6313 7.72461C20.1438 7.50586 20.725 7.7793 20.925 8.33984C21.125 8.90039 20.875 9.53613 20.3625 9.75488L10.55 13.9727C9.77502 14.3076 9.09377 14.8203 8.53752 15.4492L18.5125 19.3867C18.9875 19.5713 19.4875 19.667 19.9938 19.667C20.5 19.667 21 19.5713 21.475 19.3867L39.0125 12.4824C39.6063 12.25 40 11.6279 40 10.9375C40 10.2471 39.6063 9.63184 39.0125 9.39258L21.4813 2.46777C21.0063 2.2832 20.5063 2.1875 20 2.1875ZM8.00002 27.8906C8.00002 30.3037 13.375 32.8125 20 32.8125C26.625 32.8125 32 30.3037 32 27.8906L31.0438 17.9512L22.1563 21.4648C21.4625 21.7383 20.7313 21.875 20 21.875C19.2688 21.875 18.5313 21.7383 17.8438 21.4648L8.95627 17.9512L8.00002 27.8906Z" fill="#6D493B"/>
</g>
<defs>
<clipPath id="clip0_242_242">
<rect width="40" height="35" fill="white"/>
</clipPath>
</defs>
</svg>
