<?xml version="1.0" standalone="no"?>
<!DOCTYPE svg PUBLIC "-//W3C//DTD SVG 20010904//EN"
 "http://www.w3.org/TR/2001/REC-SVG-20010904/DTD/svg10.dtd">
<svg version="1.0" xmlns="http://www.w3.org/2000/svg"
 width="512.000000pt" height="512.000000pt" viewBox="0 0 512.000000 512.000000"
 preserveAspectRatio="xMidYMid meet">

<g transform="translate(0.000000,512.000000) scale(0.100000,-0.100000)"
fill="#000000" stroke="none">
<path d="M2485 4788 c-16 -6 -46 -22 -65 -37 -19 -14 -489 -415 -1045 -891
-788 -676 -1014 -875 -1028 -905 -78 -165 33 -345 213 -345 71 0 121 22 190
82 l45 40 5 -507 5 -507 24 -19 c32 -26 77 -24 106 6 l25 24 1 573 0 573 795
680 c437 374 798 681 802 682 4 2 306 -254 672 -567 366 -314 676 -573 689
-577 32 -8 72 15 89 50 11 22 11 32 0 55 -7 15 -329 298 -716 630 -579 496
-707 602 -731 602 -24 0 -196 -143 -998 -830 -1058 -907 -1000 -863 -1058
-805 -36 35 -32 69 12 115 21 21 483 419 1026 884 821 703 993 846 1018 846
24 0 200 -147 1043 -869 558 -479 1020 -879 1025 -890 28 -51 -11 -111 -71
-111 -27 0 -54 18 -156 105 -67 58 -133 107 -146 111 -26 6 -64 -10 -83 -35
-10 -12 -12 -217 -13 -883 l0 -867 -269 -3 c-254 -3 -271 -4 -297 -24 -15 -11
-37 -33 -48 -48 -20 -26 -21 -42 -24 -337 l-3 -309 -959 0 -959 0 -3 308 -3
309 -29 37 c-48 63 -64 66 -351 66 l-255 0 0 91 c0 102 -7 121 -50 139 -24 10
-36 10 -60 0 -43 -18 -50 -37 -50 -139 l0 -90 -189 -3 c-207 -3 -216 -6 -265
-72 -20 -26 -21 -42 -24 -351 -3 -363 -2 -371 64 -421 l37 -29 2138 0 2138 0
27 21 c15 11 37 33 48 48 20 26 21 40 21 365 l0 338 -29 37 c-45 60 -71 66
-271 66 l-175 0 0 766 0 765 28 -20 c16 -11 35 -28 43 -37 8 -10 37 -28 64
-40 160 -75 339 36 339 211 1 107 -18 131 -259 338 l-214 182 0 493 -1 493
-25 24 -24 25 -269 0 c-251 0 -271 -1 -293 -19 -24 -19 -24 -23 -29 -239 l-5
-221 -488 419 c-269 230 -505 427 -525 436 -44 21 -136 28 -177 12z m1675
-914 l0 -366 -35 29 c-19 15 -91 75 -159 133 l-125 105 0 233 -1 232 160 0
160 0 0 -366z m-2720 -3114 l0 -280 -480 0 -480 0 0 280 0 280 480 0 480 0 0
-280z m3200 0 l0 -280 -480 0 -480 0 0 280 0 280 480 0 480 0 0 -280z"/>
<path d="M1695 2786 c-37 -17 -70 -52 -84 -89 -7 -19 -11 -201 -11 -538 0
-566 -1 -554 66 -605 l37 -29 858 0 c851 0 858 0 885 21 15 11 37 33 48 48 21
27 21 38 21 566 0 528 0 539 -21 566 -11 15 -33 37 -48 48 -27 21 -36 21 -874
23 -691 2 -853 0 -877 -11z m785 -346 l0 -200 -360 0 -360 0 0 200 0 200 360
0 360 0 0 -200z m880 0 l0 -200 -360 0 -360 0 0 200 0 200 360 0 360 0 0 -200z
m-880 -560 l0 -200 -360 0 -360 0 0 200 0 200 360 0 360 0 0 -200z m880 0 l0
-200 -360 0 -360 0 0 200 0 200 360 0 360 0 0 -200z"/>
</g>
</svg>
