<?xml version="1.0" encoding="UTF-8"?>
<!DOCTYPE svg PUBLIC "-//W3C//DTD SVG 1.1//EN" "http://www.w3.org/Graphics/SVG/1.1/DTD/svg11.dtd">
<svg xmlns="http://www.w3.org/2000/svg" version="1.1" width="800px" height="800px" style="shape-rendering:geometricPrecision; text-rendering:geometricPrecision; image-rendering:optimizeQuality; fill-rule:evenodd; clip-rule:evenodd" xmlns:xlink="http://www.w3.org/1999/xlink">
<g><path style="opacity:0.998" fill="#e34f26" d="M 45.5,-0.5 C 280.833,-0.5 516.167,-0.5 751.5,-0.5C 730.331,239.195 708.831,478.862 687,718.5C 591.767,745.597 496.6,772.597 401.5,799.5C 399.167,799.5 396.833,799.5 394.5,799.5C 299.778,772.442 204.945,745.442 110,718.5C 88.6633,478.791 67.1633,239.125 45.5,-0.5 Z"/></g>
<g><path style="opacity:1" fill="#ef652a" d="M 399.5,646.5 C 399.5,646.167 399.5,645.833 399.5,645.5C 459.5,629.167 519.5,612.833 579.5,596.5C 586.838,505.774 594.838,415.107 603.5,324.5C 535.5,324.5 467.5,324.5 399.5,324.5C 399.5,294.5 399.5,264.5 399.5,234.5C 470.5,234.5 541.5,234.5 612.5,234.5C 612.5,233.167 612.5,231.833 612.5,230.5C 615.021,202.518 617.354,174.518 619.5,146.5C 545.5,146.5 471.5,146.5 397.5,146.5C 324.167,146.5 250.833,146.5 177.5,146.5C 251.331,145.501 325.331,145.167 399.5,145.5C 399.5,116.167 399.5,86.8333 399.5,57.5C 495.167,57.5 590.833,57.5 686.5,57.5C 668.913,262.532 650.747,467.532 632,672.5C 554.716,694.656 477.216,715.989 399.5,736.5C 399.5,706.5 399.5,676.5 399.5,646.5 Z"/></g>
<g><path style="opacity:1" fill="#ebeaea" d="M 177.5,146.5 C 250.833,146.5 324.167,146.5 397.5,146.5C 397.5,175.5 397.5,204.5 397.5,233.5C 356.33,233.168 315.33,233.501 274.5,234.5C 277.488,264.42 280.155,294.42 282.5,324.5C 320.833,324.5 359.167,324.5 397.5,324.5C 397.5,354.167 397.5,383.833 397.5,413.5C 331.833,413.5 266.167,413.5 200.5,413.5C 193.254,324.461 185.587,235.461 177.5,146.5 Z"/></g>
<g><path style="opacity:1" fill="#fefefe" d="M 397.5,146.5 C 471.5,146.5 545.5,146.5 619.5,146.5C 617.354,174.518 615.021,202.518 612.5,230.5C 611.596,231.209 611.263,232.209 611.5,233.5C 540.167,233.5 468.833,233.5 397.5,233.5C 397.5,204.5 397.5,175.5 397.5,146.5 Z"/></g>
<g><path style="opacity:1" fill="#f19d7c" d="M 612.5,230.5 C 612.5,231.833 612.5,233.167 612.5,234.5C 541.5,234.5 470.5,234.5 399.5,234.5C 357.833,234.5 316.167,234.5 274.5,234.5C 315.33,233.501 356.33,233.168 397.5,233.5C 468.833,233.5 540.167,233.5 611.5,233.5C 611.263,232.209 611.596,231.209 612.5,230.5 Z"/></g>
<g><path style="opacity:1" fill="#e34f26" d="M 274.5,234.5 C 316.167,234.5 357.833,234.5 399.5,234.5C 399.5,264.5 399.5,294.5 399.5,324.5C 398.833,324.5 398.167,324.5 397.5,324.5C 359.167,324.5 320.833,324.5 282.5,324.5C 280.155,294.42 277.488,264.42 274.5,234.5 Z"/></g>
<g><path style="opacity:1" fill="#fefefe" d="M 397.5,324.5 C 398.167,324.5 398.833,324.5 399.5,324.5C 467.5,324.5 535.5,324.5 603.5,324.5C 594.838,415.107 586.838,505.774 579.5,596.5C 519.5,612.833 459.5,629.167 399.5,645.5C 397.508,615.518 396.841,585.185 397.5,554.5C 398.791,554.737 399.791,554.404 400.5,553.5C 432.094,544.684 463.76,536.018 495.5,527.5C 499.899,489.575 503.566,451.575 506.5,413.5C 470.833,413.5 435.167,413.5 399.5,413.5C 398.833,413.5 398.167,413.5 397.5,413.5C 397.5,383.833 397.5,354.167 397.5,324.5 Z"/></g>
<g><path style="opacity:1" fill="#ef652a" d="M 399.5,413.5 C 435.167,413.5 470.833,413.5 506.5,413.5C 503.566,451.575 499.899,489.575 495.5,527.5C 463.76,536.018 432.094,544.684 400.5,553.5C 400.167,553.5 399.833,553.5 399.5,553.5C 399.5,506.833 399.5,460.167 399.5,413.5 Z"/></g>
<g><path style="opacity:1" fill="#e56f4e" d="M 293.5,457.5 C 264.5,457.5 235.5,457.5 206.5,457.5C 206.5,460.167 206.5,462.833 206.5,465.5C 205.523,462.713 205.19,459.713 205.5,456.5C 235.005,456.169 264.338,456.502 293.5,457.5 Z"/></g>
<g><path style="opacity:1" fill="#ebeaea" d="M 293.5,457.5 C 295.475,481.083 297.808,504.583 300.5,528C 333.293,537.282 366.293,545.782 399.5,553.5C 399.833,553.5 400.167,553.5 400.5,553.5C 399.791,554.404 398.791,554.737 397.5,554.5C 396.841,585.185 397.508,615.518 399.5,645.5C 399.5,645.833 399.5,646.167 399.5,646.5C 338.68,630.45 278.013,613.783 217.5,596.5C 213.436,552.866 209.769,509.2 206.5,465.5C 206.5,462.833 206.5,460.167 206.5,457.5C 235.5,457.5 264.5,457.5 293.5,457.5 Z"/></g>
</svg>
