<?xml version="1.0" encoding="UTF-8"?>
<!DOCTYPE svg PUBLIC "-//W3C//DTD SVG 1.1//EN" "http://www.w3.org/Graphics/SVG/1.1/DTD/svg11.dtd">
<svg xmlns="http://www.w3.org/2000/svg" version="1.1" width="640px" height="640px" style="shape-rendering:geometricPrecision; text-rendering:geometricPrecision; image-rendering:optimizeQuality; fill-rule:evenodd; clip-rule:evenodd" xmlns:xlink="http://www.w3.org/1999/xlink">
<g><path style="opacity:1" fill="#efda4f" d="M -0.5,0.5 C 212.5,0.5 425.5,0.5 638.5,0.5C 638.5,213.5 638.5,426.5 638.5,639.5C 425.5,639.5 212.5,639.5 -0.5,639.5C -0.5,426.5 -0.5,213.5 -0.5,0.5 Z"/></g>
<g><path style="opacity:1" fill="#f7eda7" d="M -0.5,0.5 C -0.5,0.166667 -0.5,-0.166667 -0.5,-0.5C 212.833,-0.5 426.167,-0.5 639.5,-0.5C 639.5,212.833 639.5,426.167 639.5,639.5C 639.167,639.5 638.833,639.5 638.5,639.5C 638.5,426.5 638.5,213.5 638.5,0.5C 425.5,0.5 212.5,0.5 -0.5,0.5 Z"/></g>
<g><path style="opacity:1" fill="#323330" d="M 401.5,397.5 C 401.59,394.848 400.924,392.515 399.5,390.5C 391.771,336.436 414.438,303.269 467.5,291C 487.652,288.769 507.318,290.769 526.5,297C 545.781,305.446 560.448,318.946 570.5,337.5C 555.459,347.86 540.126,357.86 524.5,367.5C 511.366,344.264 492.366,337.43 467.5,347C 453.186,360.937 452.852,375.27 466.5,390C 473.011,394.759 480.011,398.759 487.5,402C 510.264,410.579 531.931,421.246 552.5,434C 580.408,454.025 592.241,481.192 588,515.5C 581.231,553.272 559.064,576.439 521.5,585C 485.593,593.263 451.593,588.597 419.5,571C 401.914,560.431 389.08,545.931 381,527.5C 396.422,517.537 412.255,508.203 428.5,499.5C 436.74,512.907 447.74,523.407 461.5,531C 474.85,535.795 488.516,536.795 502.5,534C 522.977,528.86 531.144,516.027 527,495.5C 524.926,490.525 521.759,486.358 517.5,483C 509.819,478.158 501.819,473.825 493.5,470C 469.276,461.721 446.943,450.054 426.5,435C 414.681,424.707 406.348,412.207 401.5,397.5 Z"/></g>
<g><path style="opacity:1" fill="#333330" d="M 287.5,293.5 C 307.5,293.5 327.5,293.5 347.5,293.5C 347.667,363.834 347.5,434.167 347,504.5C 342.616,560.711 312.116,588.711 255.5,588.5C 215.183,588.518 186.183,570.518 168.5,534.5C 168.833,533.833 169.167,533.167 169.5,532.5C 185.131,523.365 200.631,514.032 216,504.5C 221.073,513.473 227.24,521.64 234.5,529C 247.97,537.32 261.636,537.653 275.5,530C 282.816,522.731 286.649,513.898 287,503.5C 287.5,433.501 287.667,363.501 287.5,293.5 Z"/></g>
<g><path style="opacity:1" fill="#b4a645" d="M 399.5,390.5 C 400.924,392.515 401.59,394.848 401.5,397.5C 400.076,395.485 399.41,393.152 399.5,390.5 Z"/></g>
</svg>
