<?xml version="1.0" encoding="UTF-8"?>
<!DOCTYPE svg PUBLIC "-//W3C//DTD SVG 1.1//EN" "http://www.w3.org/Graphics/SVG/1.1/DTD/svg11.dtd">
<svg xmlns="http://www.w3.org/2000/svg" version="1.1" width="300px" height="300px" style="shape-rendering:geometricPrecision; text-rendering:geometricPrecision; image-rendering:optimizeQuality; fill-rule:evenodd; clip-rule:evenodd" xmlns:xlink="http://www.w3.org/1999/xlink">
<g><path style="opacity:0.99" fill="#98414e" d="M 102.5,7.5 C 162.168,7.33334 221.834,7.50001 281.5,8C 281.833,8.33333 282.167,8.66667 282.5,9C 269.781,43.2665 257.781,77.7665 246.5,112.5C 267.839,119.496 276.672,134.162 273,156.5C 272.171,160.161 270.671,163.495 268.5,166.5C 279.696,190.874 275.696,212.374 256.5,231C 248.447,237.193 239.447,241.526 229.5,244C 216.185,246.426 202.851,248.759 189.5,251C 166.817,258.674 144.817,268.007 123.5,279C 108.512,285.83 92.8452,289.997 76.5,291.5C 39.2308,288.398 19.2308,268.231 16.5,231C 17.9662,210.434 23.9662,191.267 34.5,173.5C 21.2962,158.387 20.1296,142.387 31,125.5C 45.4482,109.877 62.2816,106.711 81.5,116C 98.797,128.02 103.63,143.853 96,163.5C 90.8378,172.512 83.3378,178.845 73.5,182.5C 69.4209,194.675 72.9209,204.008 84,210.5C 101.208,203.463 115.375,192.463 126.5,177.5C 109.168,161.833 106.668,144.166 119,124.5C 124.26,118.45 130.76,114.284 138.5,112C 125.995,77.3179 113.995,42.4846 102.5,7.5 Z M 126.5,25.5 C 170.172,25.1667 213.838,25.5001 257.5,26.5C 247.568,54.4623 237.735,82.4623 228,110.5C 226.373,112.312 224.873,112.479 223.5,111C 213.135,90.4375 202.635,69.9375 192,49.5C 181.5,69.8333 171,90.1667 160.5,110.5C 159.277,111.614 157.944,111.781 156.5,111C 146.202,82.6062 136.202,54.1062 126.5,25.5 Z M 191.5,87.5 C 197.853,98.3662 203.853,109.533 209.5,121C 204.201,126.099 200.867,132.265 199.5,139.5C 194.833,139.5 190.167,139.5 185.5,139.5C 183.889,132.111 180.555,125.611 175.5,120C 180.724,109.052 186.058,98.2188 191.5,87.5 Z M 54.5,127.5 C 74.8022,126.296 83.3022,135.629 80,155.5C 72.1942,167.745 61.6942,170.579 48.5,164C 38.547,154.511 37.547,144.344 45.5,133.5C 48.0839,130.72 51.0839,128.72 54.5,127.5 Z M 142.5,127.5 C 153.703,125.279 162.203,128.946 168,138.5C 172.418,155.348 166.085,165.015 149,167.5C 133.339,165.831 126.672,157.165 129,141.5C 131.661,135.006 136.161,130.339 142.5,127.5 Z M 229.5,127.5 C 245.304,125.324 254.638,131.991 257.5,147.5C 254.003,164.086 244.003,170.253 227.5,166C 215.137,158.569 212.303,148.402 219,135.5C 221.94,131.963 225.44,129.297 229.5,127.5 Z M 185.5,156.5 C 190.214,156.173 194.88,156.507 199.5,157.5C 207.936,178.222 223.269,186.722 245.5,183C 248.618,182.127 251.618,180.961 254.5,179.5C 260.147,200.378 253.147,215.545 233.5,225C 228.625,226.802 223.625,228.135 218.5,229C 202.13,230.617 186.13,233.95 170.5,239C 151.83,246.558 133.497,254.892 115.5,264C 98.6833,272.498 81.0166,275.165 62.5,272C 43.1164,265.091 33.7831,251.258 34.5,230.5C 35.1168,213.648 39.7834,197.981 48.5,183.5C 50.4012,182.769 52.4012,182.769 54.5,183.5C 52.5978,205.351 61.7645,220.684 82,229.5C 107.61,221.22 128.11,206.054 143.5,184C 159.054,185.474 171.554,179.974 181,167.5C 183.066,164.039 184.566,160.373 185.5,156.5 Z"/></g>
</svg>
