<svg width="30" height="27" viewBox="0 0 30 27" fill="none" xmlns="http://www.w3.org/2000/svg">
<path d="M27.8571 0H2.13616C0.957589 0 0 0.870652 0 1.93945V24.9607C0 26.0295 0.957589 26.9001 2.13616 26.9001H27.8571C29.0357 26.9001 30 26.0295 30 24.9607V1.93945C30 0.870652 29.0357 0 27.8571 0ZM9.06696 23.0573H4.62054V10.2197H9.07366V23.0573H9.06696ZM6.84375 8.46634C5.41741 8.46634 4.26562 7.42756 4.26562 6.15461C4.26562 4.88166 5.41741 3.84288 6.84375 3.84288C8.26339 3.84288 9.42187 4.88166 9.42187 6.15461C9.42187 7.43357 8.27009 8.46634 6.84375 8.46634ZM25.7344 23.0573H21.2879V16.8126C21.2879 15.3235 21.2545 13.408 18.9777 13.408C16.6607 13.408 16.3058 15.0293 16.3058 16.7045V23.0573H11.8594V10.2197H16.125V11.973H16.1853C16.7812 10.9642 18.2344 9.90142 20.3973 9.90142C24.8973 9.90142 25.7344 12.5614 25.7344 16.02V23.0573Z" fill="white"/>
</svg>
