<?xml version="1.0" standalone="no"?>
<!DOCTYPE svg PUBLIC "-//W3C//DTD SVG 20010904//EN"
 "http://www.w3.org/TR/2001/REC-SVG-20010904/DTD/svg10.dtd">
<svg version="1.0" xmlns="http://www.w3.org/2000/svg"
 width="626.000000pt" height="626.000000pt" viewBox="0 0 626.000000 626.000000"
 preserveAspectRatio="xMidYMid meet">

<g transform="translate(0.000000,626.000000) scale(0.100000,-0.100000)"
fill="#000000" stroke="none">
<path d="M1290 5979 c-356 -42 -663 -239 -854 -548 -81 -133 -134 -286 -156
-454 -7 -56 -10 -652 -8 -1902 4 -1815 4 -1820 25 -1905 57 -228 154 -403 312
-561 183 -183 415 -297 666 -328 63 -8 631 -11 1860 -11 1524 0 1784 2 1870
15 355 54 659 261 833 570 52 93 106 239 129 350 17 85 18 187 18 1925 0 1725
-1 1840 -18 1923 -93 459 -429 802 -892 910 -90 21 -98 21 -1900 23 -995 1
-1844 -2 -1885 -7z m741 -1226 c80 -39 150 -111 187 -191 24 -50 27 -69 27
-157 0 -88 -3 -107 -27 -157 -37 -80 -107 -152 -187 -191 -61 -30 -72 -32
-171 -32 -96 0 -110 2 -163 30 -66 33 -144 112 -176 178 -85 176 -18 408 147
504 76 45 111 53 207 51 79 -3 99 -7 156 -35z m2133 -1047 c204 -59 375 -202
466 -391 72 -151 70 -121 70 -985 l1 -774 -31 1 c-16 1 -158 2 -315 2 l-285 1
0 588 c0 379 -4 609 -11 648 -42 233 -244 382 -469 347 -177 -28 -319 -148
-371 -314 -18 -57 -19 -100 -19 -665 0 -476 -3 -604 -12 -605 -11 0 -600 0
-621 1 -4 0 -6 483 -5 1073 l3 1072 318 3 317 2 0 -145 0 -145 71 75 c112 118
230 185 384 219 97 21 424 16 509 -8z m-1976 -1073 l2 -1072 -321 -3 c-176 -2
-321 -2 -322 -1 -1 1 -1 486 1 1077 l2 1076 318 -2 317 -3 3 -1072z"/>
</g>
</svg>
