<svg width="38" height="45" viewBox="0 0 38 45" fill="none" xmlns="http://www.w3.org/2000/svg">
<path d="M35.2857 2.8125H2.7058C1.21295 2.8125 0 4.08691 0 5.65137V39.3486C0 40.9131 1.21295 42.1875 2.7058 42.1875H35.2857C36.7786 42.1875 38 40.9131 38 39.3486V5.65137C38 4.08691 36.7786 2.8125 35.2857 2.8125ZM11.4848 36.5625H5.85268V17.7715H11.4933V36.5625H11.4848ZM8.66875 15.2051C6.86205 15.2051 5.40312 13.6846 5.40312 11.8213C5.40312 9.95801 6.86205 8.4375 8.66875 8.4375C10.467 8.4375 11.9344 9.95801 11.9344 11.8213C11.9344 13.6934 10.4754 15.2051 8.66875 15.2051ZM32.5969 36.5625H26.9647V27.4219C26.9647 25.2422 26.9223 22.4385 24.0384 22.4385C21.1036 22.4385 20.654 24.8115 20.654 27.2637V36.5625H15.0219V17.7715H20.425V20.3379H20.5013C21.2562 18.8613 23.0969 17.3057 25.8366 17.3057C31.5366 17.3057 32.5969 21.1992 32.5969 26.2617V36.5625Z" fill="#0A66C2"/>
</svg>
