<?xml version="1.0" encoding="UTF-8"?>
<!DOCTYPE svg PUBLIC "-//W3C//DTD SVG 1.1//EN" "http://www.w3.org/Graphics/SVG/1.1/DTD/svg11.dtd">
<svg xmlns="http://www.w3.org/2000/svg" version="1.1" width="2560px" height="690px" style="shape-rendering:geometricPrecision; text-rendering:geometricPrecision; image-rendering:optimizeQuality; fill-rule:evenodd; clip-rule:evenodd" xmlns:xlink="http://www.w3.org/1999/xlink">
<g><path style="opacity:0.996" fill="#10a950" d="M 163.5,14.5 C 166.245,44.4295 167.745,74.4295 168,104.5C 169.895,214.161 170.895,323.828 171,433.5C 169.683,463.21 167.85,492.877 165.5,522.5C 164.898,548.838 160.565,574.505 152.5,599.5C 90.5604,552.679 48.0604,492.012 25,417.5C 13.8916,375.325 11.225,332.659 17,289.5C 28.5802,187.733 73.2468,104.066 151,38.5C 157.699,30.0735 161.032,20.4068 161,9.5C 162.372,10.9101 163.205,12.5767 163.5,14.5 Z"/></g>
<g><path style="opacity:1" fill="#12924f" d="M 163.5,14.5 C 169.527,27.5514 176.361,40.2181 184,52.5C 202.407,71.5701 220.074,91.2368 237,111.5C 280.529,171.057 306.196,237.723 314,311.5C 320.685,416.16 286.519,504.66 211.5,577C 204.885,582.795 197.885,587.961 190.5,592.5C 187.357,591.866 184.857,590.2 183,587.5C 176.12,577.201 171.787,565.868 170,553.5C 168.507,544.219 167.507,534.886 167,525.5C 166.768,524.263 166.268,523.263 165.5,522.5C 167.85,492.877 169.683,463.21 171,433.5C 170.895,323.828 169.895,214.161 168,104.5C 167.745,74.4295 166.245,44.4295 163.5,14.5 Z"/></g>
<g><path style="opacity:0.986" fill="#20303b" d="M 1839.5,231.5 C 1897.5,232.088 1955.5,232.254 2013.5,232C 2078.26,237.122 2121.1,270.289 2142,331.5C 2153.5,376.493 2148.5,419.493 2127,460.5C 2097,504.607 2055.17,529.44 2001.5,535C 1985.71,536.643 1969.88,537.476 1954,537.5C 1915.83,536.873 1877.66,536.206 1839.5,535.5C 1839.12,529.026 1840.62,523.026 1844,517.5C 1853.33,515.536 1862.5,512.703 1871.5,509C 1875.71,504.364 1877.87,498.864 1878,492.5C 1879.59,421.511 1879.93,350.511 1879,279.5C 1878.84,264.67 1871.34,256.503 1856.5,255C 1847.92,253.131 1839.25,251.965 1830.5,251.5C 1831.88,244.083 1834.88,237.417 1839.5,231.5 Z M 1954.5,253.5 C 1978.98,253.136 2002.65,257.303 2025.5,266C 2061.49,283.67 2083.66,312.17 2092,351.5C 2098.41,386.485 2095.07,420.485 2082,453.5C 2058.82,498.346 2021.98,517.846 1971.5,512C 1960.04,511.068 1949.37,507.735 1939.5,502C 1934.68,497.849 1931.52,492.682 1930,486.5C 1928.36,412.86 1928.02,339.193 1929,265.5C 1929.31,261.035 1931.48,257.868 1935.5,256C 1941.97,255.071 1948.3,254.237 1954.5,253.5 Z"/></g>
<g><path style="opacity:0.986" fill="#20303b" d="M 2179.5,232.5 C 2220.66,233.791 2261.83,233.791 2303,232.5C 2330.78,229.989 2356.95,235.156 2381.5,248C 2406.18,267.171 2414.35,292.005 2406,322.5C 2397.19,341.975 2383.03,356.141 2363.5,365C 2385.63,369.807 2404.13,380.64 2419,397.5C 2434.54,422.353 2436.54,448.353 2425,475.5C 2415.89,493.613 2402.39,507.447 2384.5,517C 2366.71,526.932 2347.71,533.265 2327.5,536C 2312.23,537.886 2296.89,538.719 2281.5,538.5C 2244.92,537.93 2208.42,536.93 2172,535.5C 2171.97,528.604 2174.13,522.437 2178.5,517C 2188.84,516.067 2198.84,513.733 2208.5,510C 2212.68,506.135 2214.85,501.301 2215,495.5C 2215.33,490.167 2215.67,484.833 2216,479.5C 2216.67,409.833 2216.67,340.167 2216,270.5C 2215.05,263.552 2211.22,259.052 2204.5,257C 2194.23,254.962 2183.9,253.295 2173.5,252C 2171.58,249.815 2171.42,247.315 2173,244.5C 2174.52,240.08 2176.68,236.08 2179.5,232.5 Z M 2278.5,255.5 C 2293.78,255.146 2308.78,256.98 2323.5,261C 2344.11,268.281 2355.94,282.781 2359,304.5C 2362.3,325.293 2355.8,342.126 2339.5,355C 2332.59,358.516 2325.26,360.516 2317.5,361C 2302.17,361.667 2286.83,361.667 2271.5,361C 2269.24,360.764 2267.07,360.264 2265,359.5C 2264.14,326.818 2264.47,294.151 2266,261.5C 2266.78,259.714 2267.95,258.214 2269.5,257C 2272.69,256.819 2275.69,256.319 2278.5,255.5 Z M 2276.5,383.5 C 2295.04,383.381 2313.38,385.214 2331.5,389C 2368.47,400.764 2384.31,425.93 2379,464.5C 2373.3,492.198 2356.47,508.365 2328.5,513C 2313,514.306 2297.66,513.306 2282.5,510C 2274.06,505.656 2268.56,498.822 2266,489.5C 2265.67,486.833 2265.33,484.167 2265,481.5C 2264.17,449.495 2264.33,417.495 2265.5,385.5C 2269.3,384.896 2272.97,384.23 2276.5,383.5 Z"/></g>
<g><path style="opacity:0.986" fill="#21303b" d="M 1200.5,332.5 C 1235.34,332.844 1257.17,349.844 1266,383.5C 1267.54,390.422 1268.54,397.422 1269,404.5C 1269.12,438.516 1269.78,472.516 1271,506.5C 1271.74,509.573 1273.57,511.74 1276.5,513C 1284.89,516.178 1293.56,518.011 1302.5,518.5C 1303.62,525.308 1302.96,531.974 1300.5,538.5C 1298.83,538.833 1297.17,539.167 1295.5,539.5C 1265.33,536.889 1235.17,536.889 1205,539.5C 1202.83,539.167 1200.67,538.833 1198.5,538.5C 1197.17,532.167 1197.17,525.833 1198.5,519.5C 1205.59,518.429 1212.59,516.929 1219.5,515C 1223.17,513.332 1225.33,510.499 1226,506.5C 1226.92,471.479 1226.59,436.479 1225,401.5C 1219.25,379.424 1204.92,368.09 1182,367.5C 1165.92,367.546 1151.92,372.88 1140,383.5C 1138.4,386.648 1137.4,389.981 1137,393.5C 1136.33,418.167 1136.33,442.833 1137,467.5C 1137.09,481.546 1137.76,495.546 1139,509.5C 1141.17,513.01 1144.34,515.177 1148.5,516C 1155.08,517.596 1161.74,518.43 1168.5,518.5C 1169.97,525.376 1169.31,532.042 1166.5,538.5C 1165.33,538.833 1164.17,539.167 1163,539.5C 1129.83,536.954 1096.67,536.954 1063.5,539.5C 1062.17,532.5 1062.17,525.5 1063.5,518.5C 1070.26,517.916 1076.92,516.749 1083.5,515C 1088.1,513.402 1090.93,510.235 1092,505.5C 1094.44,464.518 1094.77,423.518 1093,382.5C 1091.5,379.667 1089.33,377.5 1086.5,376C 1078.57,371.688 1070.23,368.355 1061.5,366C 1055.46,359.63 1056.46,354.63 1064.5,351C 1087.98,347.589 1110.81,341.756 1133,333.5C 1135.5,334.151 1136.84,335.818 1137,338.5C 1136.67,347.486 1136.67,356.486 1137,365.5C 1155.36,348.945 1176.53,337.945 1200.5,332.5 Z"/></g>
<g><path style="opacity:0.985" fill="#20303b" d="M 486.5,333.5 C 487.496,333.414 488.329,333.748 489,334.5C 489.579,336.649 490.079,338.815 490.5,341C 489.857,347.172 489.19,353.339 488.5,359.5C 488.692,361.857 489.858,363.524 492,364.5C 508.748,350.874 527.581,341.041 548.5,335C 576.024,330.679 596.858,340.512 611,364.5C 611.725,365.059 612.558,365.392 613.5,365.5C 626.805,355.504 641.138,347.004 656.5,340C 680.578,329.58 703.244,331.913 724.5,347C 736.89,359.279 744.39,374.113 747,391.5C 748.283,429.474 748.95,467.474 749,505.5C 750.105,508.937 752.272,511.437 755.5,513C 763.63,515.949 771.963,518.116 780.5,519.5C 781.755,524.536 781.588,529.536 780,534.5C 776.936,535.783 773.603,536.45 770,536.5C 740.162,535.379 710.329,535.212 680.5,536C 679.527,530.593 679.193,525.093 679.5,519.5C 687.478,518.422 695.144,516.256 702.5,513C 704.894,511.048 706.394,508.548 707,505.5C 709,471.833 709,438.167 707,404.5C 700.394,374.579 681.894,362.079 651.5,367C 639.787,369.858 629.12,374.858 619.5,382C 618.57,383.194 617.903,384.527 617.5,386C 618.204,389.128 618.704,392.294 619,395.5C 619.333,432.167 619.667,468.833 620,505.5C 620.668,509.499 622.835,512.332 626.5,514C 634.363,516.466 642.363,518.299 650.5,519.5C 650.666,524.179 650.499,528.845 650,533.5C 649.626,534.416 649.126,535.25 648.5,536C 615.458,536.174 582.458,536.674 549.5,537.5C 547.281,531.976 546.947,526.309 548.5,520.5C 555.829,518.733 563.163,516.9 570.5,515C 574.77,513.73 577.27,510.896 578,506.5C 580.838,472.54 581.172,438.54 579,404.5C 572.607,370.879 552.773,358.379 519.5,367C 509.527,370.402 500.36,375.236 492,381.5C 490.438,383.957 489.438,386.624 489,389.5C 488.172,428.511 488.506,467.511 490,506.5C 491.442,510.275 493.942,513.108 497.5,515C 504.696,517.206 512.029,518.706 519.5,519.5C 519.966,525.665 519.299,531.665 517.5,537.5C 484.5,534.848 451.5,534.848 418.5,537.5C 414.969,531.864 414.635,526.031 417.5,520C 426.978,518.717 435.978,516.05 444.5,512C 447.84,506.329 449.34,500.162 449,493.5C 449.485,471.833 449.985,450.166 450.5,428.5C 450.466,411.732 449.633,395.066 448,378.5C 444.94,375.386 441.44,372.886 437.5,371C 429.945,367.723 422.278,364.723 414.5,362C 411.704,356.577 413.371,352.91 419.5,351C 442.654,347.796 464.988,341.963 486.5,333.5 Z"/></g>
<g><path style="opacity:0.985" fill="#21303b" d="M 922.5,333.5 C 965.806,331.719 996.973,350.053 1016,388.5C 1028.93,423.706 1026.93,458.04 1010,491.5C 994.269,515.969 972.102,531.469 943.5,538C 910.864,545.674 880.864,540.007 853.5,521C 829.346,498.17 817.679,470.003 818.5,436.5C 818.947,392.415 839.28,361.582 879.5,344C 893.465,338.425 907.799,334.925 922.5,333.5 Z M 903.5,355.5 C 931.004,354.001 951.837,365.001 966,388.5C 979.333,415.83 983.333,444.497 978,474.5C 972.146,507.653 952.646,522.153 919.5,518C 901.075,513.578 887.242,503.078 878,486.5C 861.797,454.806 858.464,421.806 868,387.5C 874.377,370.616 886.21,359.949 903.5,355.5 Z"/></g>
<g><path style="opacity:0.983" fill="#20303b" d="M 1420.5,333.5 C 1429.21,333.299 1437.87,333.799 1446.5,335C 1460.35,338.395 1474.02,342.395 1487.5,347C 1498.92,349.224 1510.25,348.89 1521.5,346C 1526.04,344.118 1530.04,341.451 1533.5,338C 1534.45,337.517 1535.45,337.351 1536.5,337.5C 1540.24,367.424 1527.24,379.424 1497.5,373.5C 1508.37,425.28 1488.7,459.114 1438.5,475C 1427.98,477.585 1417.32,479.252 1406.5,480C 1394.56,486.349 1393.56,494.016 1403.5,503C 1405.25,503.471 1406.91,504.138 1408.5,505C 1434.5,507.477 1460.5,510.144 1486.5,513C 1522.77,520.013 1537.94,541.846 1532,578.5C 1525.7,602.275 1512.2,620.775 1491.5,634C 1457.39,656.22 1420.39,662.887 1380.5,654C 1360.55,648.629 1345.38,637.129 1335,619.5C 1326.76,603.44 1327.76,588.107 1338,573.5C 1342.07,569.55 1346.24,565.717 1350.5,562C 1360.05,555.064 1369.39,547.898 1378.5,540.5C 1369.59,536.449 1361.76,530.782 1355,523.5C 1351.57,518.699 1349.4,513.366 1348.5,507.5C 1348.49,505.407 1349.15,503.574 1350.5,502C 1358.67,496.748 1367,491.748 1375.5,487C 1378.67,484.659 1381.67,482.159 1384.5,479.5C 1384.13,478.098 1383.3,477.098 1382,476.5C 1351.64,465.255 1336.81,443.255 1337.5,410.5C 1339.44,376.05 1356.78,353.216 1389.5,342C 1399.67,338.044 1410,335.211 1420.5,333.5 Z M 1407.5,353.5 C 1433.46,351.547 1450.3,362.881 1458,387.5C 1463.85,408.196 1461.52,427.863 1451,446.5C 1440,458.207 1426.84,461.707 1411.5,457C 1395.43,451.262 1385.26,440.095 1381,423.5C 1376.04,407.032 1376.37,390.699 1382,374.5C 1387.42,363.567 1395.92,356.567 1407.5,353.5 Z M 1404.5,545.5 C 1425.74,544.659 1446.74,546.492 1467.5,551C 1494.15,558.912 1502.98,576.078 1494,602.5C 1487.72,613.775 1478.55,621.942 1466.5,627C 1443.39,634.535 1420.39,634.202 1397.5,626C 1376.55,617.412 1366.72,601.912 1368,579.5C 1374.91,562.425 1387.07,551.092 1404.5,545.5 Z"/></g>
<g><path style="opacity:0.985" fill="#20303b" d="M 1674.5,333.5 C 1727.29,332.78 1760.45,357.78 1774,408.5C 1781.41,446.523 1772.74,480.19 1748,509.5C 1712.55,540.458 1672.38,548.624 1627.5,534C 1595.76,519.231 1577.26,494.397 1572,459.5C 1566.11,429.011 1571.78,401.011 1589,375.5C 1606.02,355.395 1627.52,342.562 1653.5,337C 1660.61,335.593 1667.61,334.426 1674.5,333.5 Z M 1654.5,355.5 C 1681.89,353.61 1702.72,364.277 1717,387.5C 1729.53,411.684 1734.2,437.35 1731,464.5C 1730.19,478.745 1725.86,491.745 1718,503.5C 1702.57,519.122 1684.41,523.288 1663.5,516C 1641.13,505.62 1626.63,488.454 1620,464.5C 1613.55,440.651 1612.88,416.651 1618,392.5C 1623.38,373.283 1635.55,360.95 1654.5,355.5 Z"/></g>
<g><path style="opacity:0.864" fill="#20303b" d="M 2501.5,459.5 C 2527.23,459.733 2541.9,472.567 2545.5,498C 2544.72,515.885 2536.06,528.218 2519.5,535C 2494.85,541.01 2478.02,532.177 2469,508.5C 2464.96,482.075 2475.8,465.742 2501.5,459.5 Z M 2498.5,464.5 C 2525.67,462.846 2539.51,475.513 2540,502.5C 2535.13,524.186 2521.63,534.02 2499.5,532C 2477.07,524.648 2468.57,509.481 2474,486.5C 2478.93,475.4 2487.09,468.067 2498.5,464.5 Z M 2498.5,480.5 C 2502.85,480.334 2507.18,480.501 2511.5,481C 2516.74,485.491 2516.74,490.158 2511.5,495C 2507.18,495.499 2502.85,495.666 2498.5,495.5C 2498.5,490.5 2498.5,485.5 2498.5,480.5 Z"/></g>
<g><path style="opacity:0.901" fill="#20303b" d="M 2491.5,473.5 C 2499.24,473.144 2506.9,473.644 2514.5,475C 2517.33,476.5 2519.5,478.667 2521,481.5C 2522.22,487.379 2521.39,492.879 2518.5,498C 2516.73,499.439 2514.73,500.439 2512.5,501C 2515.83,508 2519.17,515 2522.5,522C 2519.77,522.818 2517.11,522.652 2514.5,521.5C 2511.31,515.252 2508.31,508.919 2505.5,502.5C 2503.26,501.526 2500.92,501.192 2498.5,501.5C 2498.5,508.5 2498.5,515.5 2498.5,522.5C 2496.17,522.5 2493.83,522.5 2491.5,522.5C 2491.5,506.167 2491.5,489.833 2491.5,473.5 Z M 2498.5,480.5 C 2498.5,485.5 2498.5,490.5 2498.5,495.5C 2502.85,495.666 2507.18,495.499 2511.5,495C 2516.74,490.158 2516.74,485.491 2511.5,481C 2507.18,480.501 2502.85,480.334 2498.5,480.5 Z"/></g>
<g><path style="opacity:0.978" fill="#b7c3c1" d="M 165.5,522.5 C 166.268,523.263 166.768,524.263 167,525.5C 167.507,534.886 168.507,544.219 170,553.5C 171.787,565.868 176.12,577.201 183,587.5C 184.857,590.2 187.357,591.866 190.5,592.5C 183.994,621.201 179.328,650.201 176.5,679.5C 171.5,679.5 166.5,679.5 161.5,679.5C 159.085,652.765 156.085,626.098 152.5,599.5C 160.565,574.505 164.898,548.838 165.5,522.5 Z"/></g>
</svg>
