<?xml version="1.0" encoding="UTF-8"?>
<!DOCTYPE svg PUBLIC "-//W3C//DTD SVG 1.1//EN" "http://www.w3.org/Graphics/SVG/1.1/DTD/svg11.dtd">
<svg xmlns="http://www.w3.org/2000/svg" version="1.1" width="300px" height="181px" style="shape-rendering:geometricPrecision; text-rendering:geometricPrecision; image-rendering:optimizeQuality; fill-rule:evenodd; clip-rule:evenodd" xmlns:xlink="http://www.w3.org/1999/xlink">
<g><path style="opacity:0.783" fill="#000000" d="M 227.5,-0.5 C 228.167,-0.5 228.833,-0.5 229.5,-0.5C 209.557,29.2032 189.223,58.7032 168.5,88C 179.2,101.901 189.533,116.067 199.5,130.5C 196.388,131.983 193.555,131.65 191,129.5C 182.399,117.284 173.566,105.284 164.5,93.5C 155.006,105.835 145.672,118.335 136.5,131C 134.098,131.814 131.765,131.647 129.5,130.5C 140.078,116.343 150.412,102.01 160.5,87.5C 150.833,74.1667 141.167,60.8333 131.5,47.5C 134.612,46.0171 137.445,46.3504 140,48.5C 147.973,59.9729 156.14,71.3063 164.5,82.5C 185.14,54.5308 206.14,26.8642 227.5,-0.5 Z"/></g>
<g><path style="opacity:0.799" fill="#000000" d="M -0.5,46.5 C 2.68521,46.0196 5.51854,46.6863 8,48.5C 37.3298,92.6541 66.8298,136.654 96.5,180.5C 95.8333,180.5 95.1667,180.5 94.5,180.5C 63.535,139.916 34.035,98.2492 6,55.5C 5.50003,80.8311 5.33336,106.164 5.5,131.5C 3.5,131.5 1.5,131.5 -0.5,131.5C -0.5,103.167 -0.5,74.8333 -0.5,46.5 Z"/></g>
<g><path style="opacity:0.783" fill="#000000" d="M 69.5,46.5 C 88.8333,46.5 108.167,46.5 127.5,46.5C 127.5,48.5 127.5,50.5 127.5,52.5C 110.5,52.5 93.5,52.5 76.5,52.5C 76.8199,63.0821 76.4866,73.5821 75.5,84C 91.8299,84.4999 108.163,84.6666 124.5,84.5C 124.5,86.5 124.5,88.5 124.5,90.5C 108.5,90.5 92.5,90.5 76.5,90.5C 76.5,102.5 76.5,114.5 76.5,126.5C 93.8333,126.5 111.167,126.5 128.5,126.5C 128.5,128.167 128.5,129.833 128.5,131.5C 108.833,131.5 89.1667,131.5 69.5,131.5C 69.5,103.167 69.5,74.8333 69.5,46.5 Z"/></g>
<g><path style="opacity:0.753" fill="#000000" d="M 200.5,46.5 C 222.5,46.5 244.5,46.5 266.5,46.5C 266.5,48.5 266.5,50.5 266.5,52.5C 256.833,52.5 247.167,52.5 237.5,52.5C 237.5,78.8333 237.5,105.167 237.5,131.5C 235.167,131.5 232.833,131.5 230.5,131.5C 230.5,105.167 230.5,78.8333 230.5,52.5C 220.828,52.6665 211.161,52.4998 201.5,52C 200.594,50.3005 200.261,48.4672 200.5,46.5 Z"/></g>
<g><path style="opacity:0.686" fill="#000000" d="M 299.5,108.5 C 299.5,109.833 299.5,111.167 299.5,112.5C 296.761,112.293 294.427,111.293 292.5,109.5C 291,109.453 290,110.119 289.5,111.5C 292.579,113.536 295.912,115.202 299.5,116.5C 299.5,118.833 299.5,121.167 299.5,123.5C 293.347,128.044 288.347,127.044 284.5,120.5C 285.167,120.167 285.833,119.833 286.5,119.5C 288.5,120.5 290.5,121.5 292.5,122.5C 294.208,122.297 295.541,121.464 296.5,120C 294.089,118.417 291.422,117.417 288.5,117C 283.766,111.218 285.099,107.384 292.5,105.5C 294.97,106.237 297.304,107.237 299.5,108.5 Z"/></g>
<g><path style="opacity:0.691" fill="#000000" d="M 278.5,106.5 C 279.833,106.5 281.167,106.5 282.5,106.5C 282.91,112.621 282.41,118.621 281,124.5C 277.393,127.269 274.06,126.936 271,123.5C 270.51,122.207 270.343,120.873 270.5,119.5C 272.929,119.585 274.929,120.585 276.5,122.5C 277.086,122.291 277.586,121.957 278,121.5C 278.499,116.511 278.666,111.511 278.5,106.5 Z"/></g>
<g><path style="opacity:0.608" fill="#000000" d="M 265.5,120.5 C 269.714,123.754 269.048,125.421 263.5,125.5C 263.365,123.446 264.032,121.779 265.5,120.5 Z"/></g>
</svg>
