<?xml version="1.0" encoding="UTF-8"?>
<!DOCTYPE svg PUBLIC "-//W3C//DTD SVG 1.1//EN" "http://www.w3.org/Graphics/SVG/1.1/DTD/svg11.dtd">
<svg xmlns="http://www.w3.org/2000/svg" version="1.1" width="1901px" height="2048px" style="shape-rendering:geometricPrecision; text-rendering:geometricPrecision; image-rendering:optimizeQuality; fill-rule:evenodd; clip-rule:evenodd" xmlns:xlink="http://www.w3.org/1999/xlink">
<g><path style="opacity:0.997" fill="#8bc84a" d="M 928.5,-0.5 C 943.167,-0.5 957.833,-0.5 972.5,-0.5C 995.276,2.92497 1016.94,10.0916 1037.5,21C 1171.18,95.5075 1305.18,169.508 1439.5,243C 1569.04,314.935 1698.7,386.601 1828.5,458C 1867.93,484.66 1891.93,521.493 1900.5,568.5C 1900.5,871.833 1900.5,1175.17 1900.5,1478.5C 1891.56,1525.56 1867.23,1562.39 1827.5,1589C 1609.65,1709.38 1391.65,1829.38 1173.5,1949C 1129.16,1974.51 1084.49,1999.51 1039.5,2024C 1029.48,2028.7 1019.48,2033.37 1009.5,2038C 996.637,2042.3 983.637,2045.47 970.5,2047.5C 956.833,2047.5 943.167,2047.5 929.5,2047.5C 905.205,2043.79 882.205,2035.96 860.5,2024C 779.459,1977.48 698.126,1931.48 616.5,1886C 607.095,1879.93 598.262,1873.1 590,1865.5C 587.027,1858.79 588.527,1853.29 594.5,1849C 610.412,1840.05 627.078,1832.71 644.5,1827C 669.453,1815.52 694.119,1803.52 718.5,1791C 722.5,1790.33 726.5,1790.33 730.5,1791C 742.5,1797.33 754.5,1803.67 766.5,1810C 821.167,1841.33 875.833,1872.67 930.5,1904C 940.196,1910.67 950.529,1912 961.5,1908C 1051.84,1856.49 1142.51,1805.49 1233.5,1755C 1391.34,1669.8 1548.67,1583.8 1705.5,1497C 1722.7,1489.15 1738.87,1479.65 1754,1468.5C 1755.89,1465.38 1757.23,1462.05 1758,1458.5C 1758.67,1168.17 1758.67,877.833 1758,587.5C 1757.31,583.791 1755.81,580.457 1753.5,577.5C 1749.93,573.762 1745.93,570.596 1741.5,568C 1495.21,432.855 1249.21,297.189 1003.5,161C 990.543,154.522 977.877,147.522 965.5,140C 960.412,138.08 955.245,136.58 950,135.5C 944.755,136.58 939.588,138.08 934.5,140C 922.123,147.522 909.457,154.522 896.5,161C 650.79,297.189 404.79,432.855 158.5,568C 150.833,572.328 145.333,578.495 142,586.5C 141.003,878.542 141.336,1170.54 143,1462.5C 144.211,1465.76 146.044,1468.59 148.5,1471C 217.051,1516.12 289.384,1554.78 365.5,1587C 389.293,1596.15 413.626,1603.49 438.5,1609C 454.983,1611.46 471.316,1611.46 487.5,1609C 521.64,1597.52 543.473,1574.36 553,1539.5C 554.044,1245.18 555.044,950.849 556,656.5C 559.739,649.091 565.572,644.257 573.5,642C 591.667,641.833 609.833,641.667 628,641.5C 647.874,641.364 667.708,641.864 687.5,643C 693.627,645.825 698.127,650.325 701,656.5C 702.664,951.778 702.998,1247.11 702,1542.5C 699.699,1596.09 682.033,1643.76 649,1685.5C 642.5,1690.67 636.667,1696.5 631.5,1703C 595.203,1730.63 554.203,1746.96 508.5,1752C 465.355,1756.96 422.688,1754.29 380.5,1744C 362.61,1738.59 344.944,1732.59 327.5,1726C 299.898,1712.87 272.565,1699.2 245.5,1685C 186.425,1651.46 127.092,1618.46 67.5,1586C 30.5642,1559.32 7.89755,1523.48 -0.5,1478.5C -0.5,1174.83 -0.5,871.167 -0.5,567.5C 8.26137,522.466 31.2614,486.632 68.5,460C 333.124,313.686 597.791,167.352 862.5,21C 873.221,15.7571 884.221,11.0904 895.5,7C 906.474,3.77541 917.474,1.27541 928.5,-0.5 Z"/></g>
<g><path style="opacity:0.996" fill="#8bc84a" d="M 1143.5,618.5 C 1209.34,616.167 1274.34,622.334 1338.5,637C 1375.82,646.989 1411.16,661.656 1444.5,681C 1505.87,724.185 1541.37,783.352 1551,858.5C 1552.38,869.142 1553.05,879.808 1553,890.5C 1549.67,898.502 1543.83,903.668 1535.5,906C 1496.44,906.982 1457.44,906.649 1418.5,905C 1413,902.167 1408.83,898 1406,892.5C 1401.16,869.975 1393.16,848.642 1382,828.5C 1367.86,805.69 1348.69,788.523 1324.5,777C 1290.49,762.998 1255.16,754.332 1218.5,751C 1168.91,745.082 1119.58,746.749 1070.5,756C 1043.37,762.258 1018.03,772.592 994.5,787C 977.025,799.424 966.192,816.257 962,837.5C 955.588,867.934 964.088,893.101 987.5,913C 1008.62,926.595 1031.62,935.262 1056.5,939C 1107.86,947.03 1159.53,952.03 1211.5,954C 1274.67,960.368 1337,971.368 1398.5,987C 1431.78,994.868 1463.44,1006.87 1493.5,1023C 1523.28,1039.78 1546.78,1062.95 1564,1092.5C 1583.21,1135.95 1589.55,1181.28 1583,1228.5C 1574.54,1286.94 1547.37,1334.44 1501.5,1371C 1491.66,1377.42 1481.99,1384.09 1472.5,1391C 1431.8,1413.57 1388.47,1429.24 1342.5,1438C 1278.73,1450.3 1214.39,1454.63 1149.5,1451C 1076.06,1449.85 1005.4,1435.51 937.5,1408C 898.593,1390.47 864.093,1366.64 834,1336.5C 798.225,1296.91 778.891,1250.25 776,1196.5C 775.333,1187.17 775.333,1177.83 776,1168.5C 778.167,1159.67 783.667,1154.17 792.5,1152C 831.167,1151.33 869.833,1151.33 908.5,1152C 915.149,1153.98 919.982,1158.14 923,1164.5C 926.177,1177.05 928.843,1189.72 931,1202.5C 938.685,1229.16 952.518,1251.99 972.5,1271C 978.167,1274.67 983.833,1278.33 989.5,1282C 1017.96,1295.26 1047.63,1304.93 1078.5,1311C 1137.21,1321.16 1196.21,1323.49 1255.5,1318C 1299.53,1315.24 1341.2,1303.91 1380.5,1284C 1415.33,1261.99 1430.49,1230.16 1426,1188.5C 1424.28,1171.23 1416.45,1157.4 1402.5,1147C 1389.4,1137.85 1375.07,1131.18 1359.5,1127C 1312.56,1114.12 1264.89,1104.79 1216.5,1099C 1162.65,1094.28 1108.98,1087.94 1055.5,1080C 1008.94,1073.69 963.943,1061.69 920.5,1044C 888.188,1029.93 860.688,1009.43 838,982.5C 818.398,955.042 807.065,924.376 804,890.5C 794.472,799.748 827.305,729.248 902.5,679C 948.172,651.773 997.505,634.44 1050.5,627C 1081.47,622.115 1112.47,619.282 1143.5,618.5 Z"/></g>
</svg>
