<?xml version="1.0" standalone="no"?>
<!DOCTYPE svg PUBLIC "-//W3C//DTD SVG 20010904//EN"
 "http://www.w3.org/TR/2001/REC-SVG-20010904/DTD/svg10.dtd">
<svg version="1.0" xmlns="http://www.w3.org/2000/svg"
 width="512.000000pt" height="512.000000pt" viewBox="0 0 512.000000 512.000000"
 preserveAspectRatio="xMidYMid meet">

<g transform="translate(0.000000,512.000000) scale(0.100000,-0.100000)"
fill="#000000" stroke="none">
<path d="M570 2877 l0 -1313 -285 -224 -285 -223 0 -94 0 -93 2560 0 2560 0 0
93 0 94 -285 223 -285 224 -2 1310 -3 1311 -1987 3 -1988 2 0 -1313z m3657
496 c-4 -302 -10 -771 -14 -1044 l-6 -497 -391 -6 c-215 -3 -952 -7 -1638 -9
l-1248 -3 0 1053 0 1053 1652 0 1651 0 -6 -547z m299 -1969 c66 -37 126 -70
134 -75 16 -9 -3671 -2 -3938 7 l-163 6 88 63 88 63 1836 1 1837 1 118 -66z
m-1617 -226 l43 -53 -171 -3 c-94 -1 -247 -1 -341 0 l-170 3 37 53 37 52 261
0 261 0 43 -52z"/>
</g>
</svg>
