<?xml version="1.0" encoding="UTF-8"?>
<!DOCTYPE svg PUBLIC "-//W3C//DTD SVG 1.1//EN" "http://www.w3.org/Graphics/SVG/1.1/DTD/svg11.dtd">
<svg xmlns="http://www.w3.org/2000/svg" version="1.1" width="2560px" height="1920px" style="shape-rendering:geometricPrecision; text-rendering:geometricPrecision; image-rendering:optimizeQuality; fill-rule:evenodd; clip-rule:evenodd" xmlns:xlink="http://www.w3.org/1999/xlink">
<g><path style="opacity:0.993" fill="#cd6699" d="M 1128.5,-0.5 C 1148.83,-0.5 1169.17,-0.5 1189.5,-0.5C 1257.32,1.69279 1323.65,13.1928 1388.5,34C 1441.9,51.8155 1489.56,79.1488 1531.5,116C 1580.82,163.491 1607.32,221.657 1611,290.5C 1614.35,354.734 1603.35,416.4 1578,475.5C 1534.78,572.393 1471.62,653.893 1388.5,720C 1328.43,767.714 1261.77,804.048 1188.5,829C 1090.82,863.67 990.149,881.836 886.5,883.5C 845.737,883.385 805.404,879.219 765.5,871C 703.385,856.381 651.885,824.881 611,776.5C 600.414,762.433 593.08,746.766 589,729.5C 588.333,725.167 588.333,720.833 589,716.5C 590.88,710.044 595.213,706.378 602,705.5C 606.005,706.419 609.505,708.252 612.5,711C 635.677,738.431 664.011,758.764 697.5,772C 740.61,788.463 785.277,796.63 831.5,796.5C 999.443,789.251 1150.44,735.751 1284.5,636C 1338.42,594.758 1383.92,545.925 1421,489.5C 1438.15,462.194 1451.82,433.194 1462,402.5C 1475.16,362.938 1476.83,322.938 1467,282.5C 1459.95,257.46 1446.45,236.627 1426.5,220C 1394.63,195.571 1358.97,178.905 1319.5,170C 1263.19,157.157 1206.19,152.49 1148.5,156C 1039.3,163.382 933.638,186.716 831.5,226C 683.296,283.906 545.629,359.573 418.5,453C 367.896,491.599 321.729,535.099 280,583.5C 247.024,623.097 222.024,667.43 205,716.5C 177.895,800.118 189.895,877.452 241,948.5C 272.055,989.223 307.555,1025.72 347.5,1058C 406.015,1103.76 464.348,1149.76 522.5,1196C 547.569,1216.73 571.069,1239.23 593,1263.5C 677.26,1216.95 761.76,1170.79 846.5,1125C 886.163,1070.66 935.163,1026.99 993.5,994C 1016.03,981.712 1040.03,974.045 1065.5,971C 1114.83,968.409 1144.66,991.243 1155,1039.5C 1158.27,1059.04 1159.27,1078.71 1158,1098.5C 1156.88,1110.26 1155.55,1121.92 1154,1133.5C 1158.11,1131.05 1161.95,1128.22 1165.5,1125C 1177.89,1118.09 1190.89,1116.75 1204.5,1121C 1216.14,1123.9 1225.97,1129.73 1234,1138.5C 1238.01,1144.36 1240.18,1150.86 1240.5,1158C 1238.71,1169.65 1236.21,1181.15 1233,1192.5C 1211.49,1268.54 1192.49,1345.2 1176,1422.5C 1171.88,1444.37 1170.88,1466.37 1173,1488.5C 1173.25,1491.79 1174.25,1494.79 1176,1497.5C 1182.83,1490.33 1188.5,1482.33 1193,1473.5C 1203.57,1453.35 1213.91,1433.02 1224,1412.5C 1289.31,1270.54 1352.98,1127.88 1415,984.5C 1423.88,959.629 1431.22,934.296 1437,908.5C 1438.93,896.571 1445.76,889.071 1457.5,886C 1483.41,878.282 1509.91,874.448 1537,874.5C 1554.76,873.764 1571.59,877.264 1587.5,885C 1593.87,889.38 1597.87,895.38 1599.5,903C 1587.64,935.907 1577.81,969.407 1570,1003.5C 1566.9,1022.39 1565.9,1041.39 1567,1060.5C 1568.97,1081.98 1571.97,1103.32 1576,1124.5C 1584.48,1150.29 1595.48,1174.95 1609,1198.5C 1657.82,1119.21 1702.82,1037.54 1744,953.5C 1751.31,937.897 1757.65,921.897 1763,905.5C 1768.77,876.526 1776.77,848.192 1787,820.5C 1791.06,816.214 1795.9,813.048 1801.5,811C 1827.16,802.685 1853.49,798.852 1880.5,799.5C 1895.54,798.546 1910.2,800.379 1924.5,805C 1930.83,807.665 1936.33,811.498 1941,816.5C 1943.18,819.683 1944.34,823.183 1944.5,827C 1937.01,851.48 1929.51,875.98 1922,900.5C 1914.05,928.988 1911.05,957.988 1913,987.5C 1915.16,1008.3 1918.16,1028.96 1922,1049.5C 1924.47,1057.24 1927.14,1064.91 1930,1072.5C 1942.8,1100.76 1956.63,1128.43 1971.5,1155.5C 2078.84,1104.75 2190.84,1090.58 2307.5,1113C 2373.85,1127 2431.51,1157 2480.5,1203C 2519.29,1241.08 2544.13,1286.91 2555,1340.5C 2569.11,1434.45 2533.28,1501.29 2447.5,1541C 2438.06,1544.72 2428.39,1545.72 2418.5,1544C 2411.35,1536.35 2412.02,1529.35 2420.5,1523C 2450.56,1506.94 2474.06,1484.1 2491,1454.5C 2504.94,1426.65 2507.94,1397.65 2500,1367.5C 2489,1327.52 2467.84,1294.02 2436.5,1267C 2403.91,1240.37 2367.25,1221.04 2326.5,1209C 2240.2,1185.26 2153.2,1182.26 2065.5,1200C 2042.4,1204.87 2020.07,1212.03 1998.5,1221.5C 2011.43,1252.74 2018.43,1285.24 2019.5,1319C 2019.62,1348.98 2011.45,1376.48 1995,1401.5C 1962.59,1446.24 1921.43,1480.41 1871.5,1504C 1849.21,1513.32 1826.54,1521.65 1803.5,1529C 1780.32,1535.61 1758.99,1531.94 1739.5,1518C 1726.61,1506.04 1719.77,1491.21 1719,1473.5C 1718.38,1446.26 1723.05,1419.93 1733,1394.5C 1746.69,1361.42 1764.69,1331.09 1787,1303.5C 1799.63,1288.54 1812.63,1273.87 1826,1259.5C 1840.03,1246.76 1853.86,1233.93 1867.5,1221C 1852.83,1193.16 1839.66,1164.66 1828,1135.5C 1815.65,1097.1 1805.65,1058.1 1798,1018.5C 1753.6,1109.19 1702.76,1195.69 1645.5,1278C 1663.66,1316.29 1673.66,1356.63 1675.5,1399C 1674.9,1455.87 1653.23,1502.87 1610.5,1540C 1566.65,1574.25 1517.32,1597.25 1462.5,1609C 1439.05,1613.78 1415.38,1615.45 1391.5,1614C 1374.41,1613.65 1360.24,1607.15 1349,1594.5C 1342.33,1583.3 1340.67,1571.3 1344,1558.5C 1347.59,1546.66 1353.25,1535.99 1361,1526.5C 1403.52,1474.13 1446.52,1422.13 1490,1370.5C 1503.75,1352 1517.25,1333.34 1530.5,1314.5C 1520.28,1292.38 1509.78,1270.38 1499,1248.5C 1485.49,1219.97 1475.16,1190.3 1468,1159.5C 1462.67,1138.17 1457.67,1116.83 1453,1095.5C 1405.21,1217.09 1350.87,1335.76 1290,1451.5C 1269.65,1488.87 1249.32,1526.2 1229,1563.5C 1211.81,1593.03 1189.65,1618.19 1162.5,1639C 1137.87,1654.61 1113.53,1654.28 1089.5,1638C 1079.96,1629.12 1072.79,1618.62 1068,1606.5C 1060.92,1586.44 1056.92,1565.77 1056,1544.5C 1055.33,1529.17 1055.33,1513.83 1056,1498.5C 1057.12,1482.44 1058.45,1466.44 1060,1450.5C 1038.46,1503.91 1014.46,1556.24 988,1607.5C 976.707,1630.24 961.874,1650.41 943.5,1668C 922.986,1683.21 899.986,1688.88 874.5,1685C 852.366,1683.02 834.2,1673.52 820,1656.5C 796.396,1625.62 779.396,1591.29 769,1553.5C 750.876,1492.03 747.21,1429.7 758,1366.5C 762.819,1327.39 771.652,1289.23 784.5,1252C 784.167,1251.5 783.833,1251 783.5,1250.5C 735.857,1276.33 688.857,1303.17 642.5,1331C 658.179,1362.38 668.012,1395.54 672,1430.5C 684.534,1530.49 666.534,1624.49 618,1712.5C 558.514,1810.2 473.68,1875.03 363.5,1907C 335.773,1914.03 307.773,1918.2 279.5,1919.5C 272.5,1919.5 265.5,1919.5 258.5,1919.5C 227.64,1918.25 197.307,1913.08 167.5,1904C 142.106,1891.27 122.606,1872.44 109,1847.5C 83.9154,1800.25 76.2487,1750.25 86,1697.5C 95.2013,1647.82 115.535,1603.49 147,1564.5C 171.57,1535.26 198.737,1508.76 228.5,1485C 287.897,1438.12 350.897,1396.45 417.5,1360C 445.008,1345.08 472.675,1330.41 500.5,1316C 482.075,1300.24 463.075,1285.24 443.5,1271C 394.674,1236.75 345.674,1202.75 296.5,1169C 250.442,1136.29 206.109,1101.29 163.5,1064C 146.362,1047.86 129.528,1031.36 113,1014.5C 77.0378,976.852 47.7044,934.519 25,887.5C 12.9174,860.811 4.41736,833.144 -0.5,804.5C -0.5,790.5 -0.5,776.5 -0.5,762.5C 5.39106,718.982 17.8911,677.315 37,637.5C 69.762,572.092 111.095,512.759 161,459.5C 223.283,393.513 291.783,335.347 366.5,285C 521.604,181.789 688.27,101.456 866.5,44C 952.119,18.2306 1039.45,3.39728 1128.5,-0.5 Z M 1064.5,1072.5 C 1069.51,1072.33 1074.51,1072.5 1079.5,1073C 1087.29,1076.06 1090.96,1081.89 1090.5,1090.5C 1088.89,1106.71 1086.06,1122.71 1082,1138.5C 1068.65,1188.24 1052.98,1237.24 1035,1285.5C 1021.72,1319.06 1008.72,1352.72 996,1386.5C 980.689,1427.12 962.689,1466.45 942,1504.5C 920.757,1539.68 904.091,1537.68 892,1498.5C 885.803,1474.06 882.97,1449.23 883.5,1424C 884.284,1341.69 905.118,1264.86 946,1193.5C 958.084,1171.65 971.418,1150.65 986,1130.5C 1003.28,1108.21 1024.45,1090.71 1049.5,1078C 1054.57,1076.04 1059.57,1074.2 1064.5,1072.5 Z M 1904.5,1270.5 C 1917.47,1309.33 1914.3,1346.99 1895,1383.5C 1882.12,1404.72 1864.95,1421.55 1843.5,1434C 1832.62,1439.86 1821.45,1445.03 1810,1449.5C 1806.93,1446.74 1805.43,1443.24 1805.5,1439C 1815.83,1392.19 1835.66,1350.02 1865,1312.5C 1877.64,1298.03 1890.81,1284.03 1904.5,1270.5 Z M 561.5,1369.5 C 592.883,1487.3 567.717,1591.3 486,1681.5C 446.623,1724.51 398.79,1754.01 342.5,1770C 321.958,1775.06 301.292,1775.73 280.5,1772C 258.021,1765.17 245.188,1750.01 242,1726.5C 239.145,1703 241.478,1680 249,1657.5C 266.249,1606.59 295.083,1563.42 335.5,1528C 382.288,1487.54 431.621,1450.54 483.5,1417C 509.73,1401.39 535.73,1385.56 561.5,1369.5 Z M 1565.5,1385.5 C 1567.08,1399.76 1565.24,1413.76 1560,1427.5C 1549.58,1452.92 1534.08,1474.76 1513.5,1493C 1497.23,1507.61 1479.56,1520.27 1460.5,1531C 1454.78,1534.1 1448.78,1535.27 1442.5,1534.5C 1442.17,1534 1441.83,1533.5 1441.5,1533C 1467.99,1503.18 1494.49,1473.34 1521,1443.5C 1536.46,1424.56 1551.29,1405.22 1565.5,1385.5 Z"/></g>
</svg>
