<?xml version="1.0" standalone="no"?>
<!DOCTYPE svg PUBLIC "-//W3C//DTD SVG 20010904//EN"
 "http://www.w3.org/TR/2001/REC-SVG-20010904/DTD/svg10.dtd">
<svg version="1.0" xmlns="http://www.w3.org/2000/svg"
 width="512.000000pt" height="512.000000pt" viewBox="0 0 512.000000 512.000000"
 preserveAspectRatio="xMidYMid meet">

<g transform="translate(0.000000,512.000000) scale(0.100000,-0.100000)"
fill="#000000" stroke="none">
<path d="M17 4582 c-16 -17 -17 -172 -17 -2018 0 -1794 2 -2002 16 -2022 l15
-22 2529 0 2529 0 15 22 c14 20 16 229 16 2024 0 1926 -1 2002 -18 2017 -17
16 -208 17 -2544 17 -2433 0 -2526 -1 -2541 -18z m5003 -412 l0 -330 -2460 0
-2460 0 0 330 0 330 2460 0 2460 0 0 -330z m0 -1995 l0 -1555 -2460 0 -2460 0
0 1555 0 1555 2460 0 2460 0 0 -1555z"/>
<path d="M510 4401 c-105 -32 -180 -128 -180 -231 0 -97 81 -204 173 -229 239
-67 411 223 236 398 -60 59 -154 85 -229 62z m128 -111 c117 -72 80 -245 -55
-257 -151 -14 -208 190 -72 259 45 23 86 23 127 -2z"/>
<path d="M1118 4395 c-61 -23 -106 -63 -134 -121 -74 -150 26 -326 193 -341
157 -14 287 132 254 283 -24 107 -111 182 -218 190 -36 2 -73 -2 -95 -11z
m141 -103 c70 -35 98 -116 64 -182 -69 -133 -263 -89 -263 59 0 107 105 172
199 123z"/>
<path d="M1760 4401 c-131 -40 -205 -171 -169 -298 18 -66 96 -144 162 -162
105 -30 216 13 271 103 83 133 18 307 -132 352 -49 15 -93 17 -132 5z m128
-111 c51 -31 74 -76 69 -133 -11 -131 -181 -172 -253 -61 -25 37 -24 116 2
152 44 59 123 77 182 42z"/>
<path d="M2418 4209 c-21 -12 -24 -59 -6 -77 9 -9 288 -12 1194 -12 l1183 0
15 22 c20 29 20 34 -4 58 -20 20 -33 20 -1192 20 -778 -1 -1179 -4 -1190 -11z"/>
<path d="M2289 3507 c-51 -34 -58 -68 -58 -278 l-1 -186 -27 -12 c-25 -12 -30
-8 -173 133 l-147 146 -48 0 -49 0 -169 -167 c-93 -93 -175 -181 -184 -197
-31 -59 -14 -88 140 -243 134 -136 140 -144 131 -170 l-9 -28 -214 -5 -213 -5
-29 -33 -29 -32 0 -246 c0 -348 -12 -334 288 -334 l200 0 6 -26 c6 -22 -4 -38
-73 -112 -44 -48 -107 -114 -140 -147 -66 -64 -80 -100 -61 -150 13 -35 311
-339 354 -362 19 -10 43 -13 69 -10 36 5 56 22 183 148 135 135 144 142 168
131 l25 -11 3 -203 c3 -221 8 -241 64 -266 35 -16 493 -16 528 0 56 25 61 45
64 266 l3 203 25 11 c23 11 33 3 173 -135 137 -137 150 -147 185 -147 20 0 49
6 64 14 41 22 339 327 352 361 22 59 8 82 -144 234 -139 139 -144 145 -134
172 l10 29 199 0 c299 0 289 -11 289 330 0 334 12 320 -277 320 l-202 0 -15
28 -15 29 140 139 c151 151 173 186 150 242 -7 16 -90 106 -185 200 l-172 172
-49 0 -48 0 -147 -146 c-143 -141 -148 -145 -173 -133 l-27 12 -1 186 c0 210
-7 244 -58 278 -33 22 -41 23 -271 23 -230 0 -238 -1 -271 -23z m499 -303 c2
-161 6 -225 15 -232 16 -13 140 -62 157 -62 7 0 82 68 165 150 83 83 155 150
161 150 5 0 79 -70 164 -155 l154 -155 -157 -158 c-86 -87 -157 -163 -157
-169 0 -22 61 -148 77 -160 12 -10 75 -13 230 -13 l213 0 0 -225 0 -225 -218
0 c-196 0 -220 -2 -234 -17 -17 -21 -68 -135 -68 -154 0 -7 70 -83 155 -169
l155 -156 -160 -159 -160 -160 -153 153 c-90 90 -160 152 -171 152 -26 0 -149
-50 -158 -64 -4 -6 -8 -109 -8 -228 l0 -218 -230 0 -230 0 0 219 c0 187 -2
220 -16 232 -22 18 -125 59 -149 59 -13 0 -76 -56 -170 -150 -82 -82 -154
-150 -160 -150 -6 0 -80 70 -165 155 l-155 155 153 153 c84 84 154 162 154
173 2 23 -40 132 -61 157 -13 15 -37 17 -233 17 l-218 0 0 225 0 225 209 0
c115 0 217 3 226 6 20 8 77 128 77 163 0 17 -41 64 -153 177 l-154 154 160
160 159 160 156 -155 c86 -85 163 -155 171 -155 14 0 132 48 157 63 9 6 12 63
12 226 0 120 3 221 7 225 4 3 106 5 227 4 l221 -3 3 -221z"/>
<path d="M2415 2845 c-290 -64 -505 -303 -534 -595 -33 -327 160 -623 474
-727 68 -23 98 -27 200 -27 173 -1 290 38 420 138 116 90 213 238 250 381 20
78 21 232 1 316 -31 136 -107 264 -213 359 -71 63 -214 136 -308 155 -85 18
-209 18 -290 0z m267 -96 c76 -16 205 -80 264 -133 28 -25 72 -76 97 -113 171
-253 121 -585 -116 -781 l-52 -42 -5 267 -5 268 -133 206 c-73 114 -139 212
-147 219 -35 29 -58 4 -197 -214 l-138 -214 0 -267 0 -266 -32 23 c-98 68
-187 197 -224 323 -27 92 -23 230 9 328 63 192 226 346 419 393 67 16 191 17
260 3z m-24 -395 c73 -116 90 -149 81 -160 -17 -21 -32 -17 -64 16 -34 35 -60
38 -91 9 l-23 -21 -27 21 c-36 29 -60 26 -96 -9 -34 -34 -41 -36 -58 -15 -10
12 5 40 80 160 51 80 96 145 99 145 3 0 48 -66 99 -146z m-90 -277 c9 3 26 14
38 24 20 19 21 18 49 -11 32 -34 69 -39 97 -13 18 16 18 9 16 -218 l-3 -234
-65 -17 c-36 -9 -99 -17 -140 -17 -41 0 -104 8 -140 17 -64 17 -65 17 -68 55
l-3 37 158 0 c172 0 203 8 203 54 0 42 -15 46 -192 46 l-168 0 0 65 0 64 121
3 c101 3 124 6 132 20 8 12 8 24 -1 42 -12 26 -12 26 -132 26 l-120 0 0 37 c0
34 1 35 18 20 28 -26 65 -21 97 13 l28 29 29 -24 c17 -15 35 -22 46 -18z"/>
<path d="M412 3478 c-9 -9 -12 -311 -12 -1297 0 -708 4 -1291 8 -1297 15 -24
50 -26 71 -5 21 21 21 24 21 1299 0 1226 -1 1280 -18 1295 -22 20 -53 22 -70
5z"/>
<path d="M912 3478 c-9 -9 -12 -311 -12 -1297 0 -708 4 -1291 8 -1297 15 -24
50 -26 71 -5 21 21 21 24 21 1294 0 1136 -2 1275 -16 1295 -17 24 -53 29 -72
10z"/>
<path d="M4136 3468 c-14 -20 -16 -159 -16 -1295 0 -1260 0 -1273 20 -1293 24
-24 29 -24 58 -4 l22 15 0 1288 c0 988 -3 1290 -12 1299 -19 19 -55 14 -72
-10z"/>
<path d="M4637 3472 c-16 -17 -17 -121 -17 -1295 0 -1264 0 -1277 20 -1297 24
-24 29 -24 58 -4 l22 15 0 1288 c0 988 -3 1290 -12 1299 -18 18 -53 15 -71 -6z"/>
</g>
</svg>
