<svg width="30" height="25" viewBox="0 0 30 25" fill="none" xmlns="http://www.w3.org/2000/svg">
<path d="M26.7857 0.553223H3.21429C1.43973 0.553223 0 1.68282 0 3.07511V21.569C0 22.9613 1.43973 24.0909 3.21429 24.0909H26.7857C28.5603 24.0909 30 22.9613 30 21.569V3.07511C30 1.68282 28.5603 0.553223 26.7857 0.553223ZM23.5112 8.89647C23.5246 9.04358 23.5246 9.19595 23.5246 9.34306C23.5246 13.8982 19.1049 19.1469 11.029 19.1469C8.53795 19.1469 6.22768 18.5795 4.28571 17.6022C4.64062 17.6338 4.98214 17.6443 5.34375 17.6443C7.39955 17.6443 9.28795 17.0979 10.7946 16.1732C8.86607 16.1416 7.24554 15.1487 6.68973 13.7826C7.36607 13.8614 7.97545 13.8614 8.67188 13.7196C6.66295 13.3991 5.15625 12.0121 5.15625 10.3361V10.294C5.73884 10.5515 6.42187 10.7091 7.13839 10.7301C6.536 10.4157 6.04218 9.98922 5.70098 9.48867C5.35979 8.98812 5.18185 8.42908 5.18304 7.86145C5.18304 7.22047 5.39732 6.63203 5.77902 6.12239C7.94196 8.21346 11.1897 9.57948 14.8326 9.72659C14.2098 7.38859 16.4397 5.49192 19.1183 5.49192C20.3839 5.49192 21.5223 5.90698 22.3259 6.57949C23.317 6.43238 24.2679 6.14341 25.1116 5.74936C24.7835 6.54796 24.0938 7.22047 23.183 7.64604C24.067 7.57248 24.9241 7.37808 25.7143 7.11013C25.1183 7.7984 24.3683 8.40786 23.5112 8.89647Z" fill="white"/>
</svg>
