<?xml version="1.0" encoding="UTF-8"?>
<!DOCTYPE svg PUBLIC "-//W3C//DTD SVG 1.1//EN" "http://www.w3.org/Graphics/SVG/1.1/DTD/svg11.dtd">
<svg xmlns="http://www.w3.org/2000/svg" version="1.1" width="2048px" height="2048px" style="shape-rendering:geometricPrecision; text-rendering:geometricPrecision; image-rendering:optimizeQuality; fill-rule:evenodd; clip-rule:evenodd" xmlns:xlink="http://www.w3.org/1999/xlink">
<g><path style="opacity:1" fill="#3178c6" d="M 63.5,-0.5 C 703.5,-0.5 1343.5,-0.5 1983.5,-0.5C 2017.83,7.83333 2039.17,29.1667 2047.5,63.5C 2047.5,703.5 2047.5,1343.5 2047.5,1983.5C 2039.17,2017.83 2017.83,2039.17 1983.5,2047.5C 1343.5,2047.5 703.5,2047.5 63.5,2047.5C 29.1667,2039.17 7.83333,2017.83 -0.5,1983.5C -0.5,1343.5 -0.5,703.5 -0.5,63.5C 7.83333,29.1667 29.1667,7.83333 63.5,-0.5 Z"/></g>
<g><path style="opacity:1" fill="#fefefe" d="M 409.5,921.5 C 652.167,921.5 894.833,921.5 1137.5,921.5C 1137.5,977.167 1137.5,1032.83 1137.5,1088.5C 1050.33,1088.17 963.332,1088.5 876.5,1089.5C 876.5,1338.5 876.5,1587.5 876.5,1836.5C 807.5,1836.5 738.5,1836.5 669.5,1836.5C 669.5,1587.5 669.5,1338.5 669.5,1089.5C 583.002,1088.5 496.335,1088.17 409.5,1088.5C 409.5,1032.83 409.5,977.167 409.5,921.5 Z"/></g>
<g><path style="opacity:1" fill="#fefefe" d="M 1807.5,956.5 C 1807.83,1019.67 1807.5,1082.67 1806.5,1145.5C 1741.34,1105.45 1670.34,1084.79 1593.5,1083.5C 1558.16,1081.89 1524.16,1087.72 1491.5,1101C 1467.45,1111.05 1449.95,1127.88 1439,1151.5C 1430.6,1179.81 1435.94,1205.14 1455,1227.5C 1473.97,1246.81 1495.47,1262.64 1519.5,1275C 1561.91,1295.7 1604.91,1315.04 1648.5,1333C 1691.28,1352.18 1730.61,1376.52 1766.5,1406C 1828.2,1461.72 1855.36,1531.22 1848,1614.5C 1844.04,1704.64 1803.2,1772.14 1725.5,1817C 1695.14,1833.34 1663.14,1845.34 1629.5,1853C 1512.9,1876.45 1397.23,1872.79 1282.5,1842C 1261.49,1835.5 1241.15,1827.33 1221.5,1817.5C 1220.17,1749.5 1220.17,1681.5 1221.5,1613.5C 1315.71,1690.39 1423.04,1718.89 1543.5,1699C 1565.59,1693.95 1585.59,1684.62 1603.5,1671C 1634.03,1640.9 1638.87,1607.07 1618,1569.5C 1599.57,1545.04 1576.74,1525.88 1549.5,1512C 1539.99,1506.74 1530.32,1501.74 1520.5,1497C 1482.07,1479.78 1443.4,1463.12 1404.5,1447C 1359.69,1426.49 1319.52,1399.32 1284,1365.5C 1237.43,1315.81 1214.93,1256.64 1216.5,1188C 1217.13,1104.74 1250.79,1038.74 1317.5,990C 1367.51,956.547 1422.51,935.88 1482.5,928C 1515.96,922.805 1549.63,920.638 1583.5,921.5C 1643.67,920.606 1703.01,927.106 1761.5,941C 1777.22,945.294 1792.55,950.461 1807.5,956.5 Z"/></g>
<g><path style="opacity:1" fill="#e0eaf6" d="M 1807.5,956.5 C 1808.83,1019.67 1808.83,1083 1807.5,1146.5C 1806.89,1146.38 1806.56,1146.04 1806.5,1145.5C 1807.5,1082.67 1807.83,1019.67 1807.5,956.5 Z"/></g>
<g><path style="opacity:1" fill="#98bbe2" d="M 409.5,921.5 C 409.5,977.167 409.5,1032.83 409.5,1088.5C 496.335,1088.17 583.002,1088.5 669.5,1089.5C 582.5,1089.5 495.5,1089.5 408.5,1089.5C 408.168,1033.33 408.501,977.331 409.5,921.5 Z"/></g>
<g><path style="opacity:1" fill="#9abce2" d="M 1137.5,921.5 C 1138.5,977.331 1138.83,1033.33 1138.5,1089.5C 1051.17,1089.5 963.833,1089.5 876.5,1089.5C 963.332,1088.5 1050.33,1088.17 1137.5,1088.5C 1137.5,1032.83 1137.5,977.167 1137.5,921.5 Z"/></g>
</svg>
